<svg xmlns="http://www.w3.org/2000/svg" version="1.1" xmlns:xlink="http://www.w3.org/1999/xlink" width="1000" height="1000"><style>
    #light-icon {
      display: inline;
    }
    #dark-icon {
      display: none;
    }

    @media (prefers-color-scheme: dark) {
      #light-icon {
        display: none;
      }
      #dark-icon {
        display: inline;
      }
    }
  </style><g id="light-icon"><svg xmlns="http://www.w3.org/2000/svg" version="1.1" xmlns:xlink="http://www.w3.org/1999/xlink" width="1000" height="1000"><g><g transform="matrix(1.953125,0,0,1.953125,0,0)"><svg xmlns="http://www.w3.org/2000/svg" version="1.1" xmlns:xlink="http://www.w3.org/1999/xlink" width="512" height="512"><svg width="512" height="512" viewBox="0 0 512 512" fill="none" xmlns="http://www.w3.org/2000/svg">
<path d="M234.101 49.8971C239.636 53.6006 246.64 58.8094 251.894 62.8654C253.541 64.1358 252.468 63.8294 253.595 64.72C255.8 66.4615 258.038 67.8259 260.2 69.5708C260.916 70.1505 259.642 69.9679 260.401 70.5648C264.557 73.8324 268.718 76.6011 273.009 79.7985C294.142 95.5487 315.138 110.717 336.736 126.369C343.858 131.53 352.268 138.151 359.811 143.217C360.692 143.808 360.475 143.022 360.664 143.104C363.622 144.404 362.161 144.644 363.766 145.953C370.138 151.144 377.547 156.459 384.099 160.863C386.887 162.736 384.734 159.952 387.158 162.377C387.327 162.545 386.316 162.499 387.033 163.079C388.66 164.395 391.947 166.607 393.242 167.579C395.736 169.454 396.16 169.748 398.562 171.461C401.843 173.805 405.597 176.803 409.198 179.205C409.968 179.717 409.295 178.551 410.552 179.325C411.809 180.101 414.963 182.396 415.958 183.265C416.954 184.134 416.242 184.17 416.373 184.387C417.441 186.192 421.805 187.838 422.295 188.15C431.214 193.867 438.226 199.668 446.329 205.416C452.431 209.741 459.077 214.189 464.878 218.337L467.395 220.078L465.612 222.655C465.578 222.703 465.543 222.751 465.509 222.799C460.53 229.749 456.089 235.482 451.326 242.286C450.823 243.004 451.956 242.548 451.342 243.425C444.823 252.746 438.229 261.916 431.312 270.894C430.618 271.794 430.992 270.265 430.27 271.144C425.861 276.535 418.567 284.837 418.238 289.663C415.435 293.444 412.046 298.044 409.195 301.184C407.357 303.208 408.367 300.692 406.657 303.568C406.271 304.216 407.288 303.738 406.675 304.686C404.092 308.676 400.944 312.802 398.459 316.799C397.954 317.612 398.51 317.686 398.426 317.959C397.699 320.233 394.532 322.63 393.984 323.254C389.818 328.007 387.368 331.899 383.966 336.667C383.176 337.773 384.649 336.848 383.909 337.926C380.061 343.514 375.948 349.211 371.864 354.458C370.954 355.624 371.278 354.187 370.819 354.728C368.804 357.115 369.278 358.297 367.361 360.598C366.958 361.084 366.768 360.514 366.658 360.577C364.935 361.558 364.999 363.518 364.753 363.91C361.662 368.885 358.489 371.216 355.364 375.924C354.991 376.488 356.374 375.601 355.295 377.164C348.111 387.582 340.229 398.399 332.581 408.33C331.392 409.875 331.821 408.474 331.703 408.541C329.823 409.656 330.046 411.399 329.715 411.943C327.08 416.215 323.557 419.453 322.745 423.05C312.572 436.705 303.112 450.789 292.945 464.308L291.758 466.023L290.002 464.808C286.673 462.304 283.379 459.757 280.133 457.147C279.924 456.98 280.654 456.779 280.234 456.449C275.184 452.461 275.663 453.919 271.55 452.367C270.514 451.976 268.636 448.993 268.457 448.745C267.811 447.841 269.205 447.76 268.958 447.499C266.905 445.364 265.622 447.991 262.419 445.72C262.321 445.645 263.049 445.51 262.811 445.277C262.072 444.549 261.122 444.134 260.411 443.405C258.786 441.733 258.931 440.117 255.602 438.756C255.179 438.586 254.784 440.312 251.97 438.221C250.849 437.386 245.787 433.829 244.435 432.739C243.084 431.651 244.359 431.908 244.271 431.818C240.869 428.549 242.48 429.338 241.171 427.143C239.86 424.951 238.968 427.327 238.033 426.999C237.096 426.67 234.639 424.221 234.069 423.571C233.5 422.922 234.549 423.255 234.005 422.73C230.393 419.26 231.527 422.465 229.97 421.838C226.298 420.363 224.906 417.145 222.136 414.961C221.387 414.37 221.781 415.158 221.066 414.698C218.239 412.873 216.918 411.24 213.498 409.452C212.938 409.159 209.783 408.262 208.616 406.449C208.452 406.19 209.371 406.287 208.261 405.375C206.604 404.012 203.516 401.699 201.551 400.491C200.101 399.6 201.257 401.336 199.647 399.909C198.932 399.275 200.621 399.938 199.257 398.776C197.9 397.619 194.186 395.007 192.768 394.02C191.353 393.034 191.795 394.043 191.659 393.993C190.845 393.684 187.987 391.991 187.749 391.821C175.677 383.341 165.134 374.689 153.236 366.635C152.303 366.002 152.569 366.924 152.423 366.833C149.131 364.804 152.532 365.269 150.641 363.275C150.257 364.489 149.086 363.39 146.793 361.925C145.687 361.22 145.997 362.016 145.871 361.986C143.874 361.444 143.304 359.909 143.129 359.554C142.481 358.244 140.865 358.102 140.419 357.218C139.972 356.336 142.009 356.945 139.877 355.444C139.03 355.375 139.952 357.42 138.231 356.425C131.738 352.671 120.884 343.878 116.04 340.328C111.206 336.785 109.581 335.73 106.824 333.581C101.844 329.7 103.242 331.724 99.8247 329.772C96.3982 327.813 99.154 327.229 98.9512 326.539C98.7567 325.855 97.9979 325.879 97.5772 325.28C97.1582 324.683 98.5468 325.297 97.2818 324.287C96.0159 323.276 91.9517 321.363 91.2148 321.411C89.6557 321.514 90.6817 323.512 87.4022 320.739C87.214 320.579 88.1805 320.597 87.4438 320.007C81.582 315.333 75.2553 310.813 69.3729 306.184C68.5647 305.547 69.6648 305.585 69.1983 305.209C64.3408 301.287 65.5662 303.409 62.1244 302.358C63.6236 301.57 62.618 299.724 58.7664 296.98C56.4514 295.331 56.4689 296.152 54.7004 295.467C54.1694 295.262 52.7909 293.729 52.3142 293.771C50.7478 293.902 51.6349 295.923 47.9254 292.738L46.4163 291.694L47.4854 290.149C47.4867 290.147 47.488 290.146 47.4893 290.144C47.5391 290.087 47.5787 290.159 47.6289 290.251L46.6611 291.65L48.0272 292.595C48.1477 292.529 48.302 292.444 48.2412 292.293L47.1757 291.556L47.9306 290.465C47.9904 290.441 48.0606 290.383 48.1443 290.276C51.0884 286.506 50.5543 285.426 53.438 281.14C55.6983 277.78 60.3919 272.283 63.1449 268.584C64.4735 269.646 66.6757 265.87 66.743 263.753C68.5131 261.341 70.3287 258.667 72.1337 256.403C72.7545 255.623 72.7771 256.441 72.8931 256.369C74.686 255.282 74.5097 253.562 74.8469 253.01C78.5424 247.052 82.5457 242.901 85.7223 236.966C85.8347 236.755 85.0951 235.759 86.8305 234.802C86.9458 234.742 86.107 236.851 87.9588 234.313C89.811 231.774 93.7543 227.309 95.8329 223.435C96.3364 222.498 97.1007 219.767 98.9508 218.452C99.1989 218.278 99.294 218.728 99.686 218.501C100.946 217.761 100.395 216.478 102.127 215.787C103.859 215.096 106.362 212.879 108.338 208.886C108.403 208.76 108.235 207.364 109.047 206.245C110.345 204.458 112.32 202.015 113.65 200.13C114.286 199.228 113.398 199.465 113.501 199.302C117.528 193.057 121.012 189.051 125.8 182.696C126.678 181.531 128.45 177.651 130.599 175.716C132.957 173.589 133.464 177.853 137.026 171.646C138.465 169.144 137.589 164.063 142.121 160.947C147.533 152.509 153.683 145.516 158.947 136.939C159.184 136.554 159.179 134.799 159.804 133.941C160.735 132.669 161.624 132.239 162.301 131.339C165.147 127.576 167.311 123.821 169.994 120.15C171.012 118.755 171.064 119.533 172.278 117.87C173.491 116.207 173.756 114.713 175.625 112.62C177.038 111.041 179.338 110.091 181.082 107.901C180.076 107.057 181.209 105.507 182.902 102.525C183.227 101.951 182.448 102.261 182.583 101.976C183.122 100.81 184.106 100.076 184.591 98.9502C184.71 98.6768 184.354 98.407 184.43 98.1689C185.066 96.1346 187.819 93.9921 188.294 93.6255C190.108 92.217 190.229 91.0427 191.418 89.8188C192.606 88.5971 191.416 90.8395 192.683 89.3274C195.31 86.1927 198.283 81.8789 200.695 78.514C201.656 77.1698 200.517 77.7439 200.643 77.5435C202.496 74.67 205.013 72.2198 205.14 69.9875C209.016 69.8335 206.089 68.135 209.416 64.5085C209.679 64.2236 211.147 64.6652 210.466 65.993C209.786 67.3206 208.12 68.884 207.205 70.7473C206.988 71.1881 206.49 74.2426 206.338 74.5995C205.145 77.395 203.131 76.482 202.943 76.5412C200.862 77.25 200.093 80.8686 199.658 81.6566C197.669 85.2622 195.408 87.9205 193.698 90.9033C192.578 92.8527 193.611 93.8541 192.559 95.2623C189.06 99.9439 186.262 100.459 184.48 105.945C184.096 107.12 186.042 107.062 182.598 109.805C182.381 109.977 179.652 111.891 179.179 113.78C179.12 114.018 179.493 114.274 179.35 114.541C178.386 116.326 177.314 117.213 176.185 119.102C175.057 120.992 173.74 123.292 172.165 125.247C171.217 126.425 169.408 127.516 168.821 127.986C167.155 129.306 166.685 131.655 165.365 132.269C164.037 132.889 164.582 130.22 162.266 132.675C163.154 133.457 163.974 134.388 164.824 135.236C160.551 141.186 156.07 146.845 151.859 152.87C151.338 153.617 152.393 153.223 151.848 154.034C149.545 157.454 147.094 160.129 144.767 163.719C142.968 166.499 141.415 169.845 139.55 172.765C137.229 173.709 134.631 178.16 132.373 181.131C131.582 182.171 131.34 181.892 130.706 182.582C128.324 185.189 130.245 184.538 129.842 185.43C128.108 189.255 125.707 187.984 122.949 191.987C122.802 192.198 122.152 195.596 121.974 196.001C120.856 198.585 121.303 196.084 120.218 197.428C118.239 199.883 116.694 201.469 114.9 204.724C114.378 205.674 113.614 208.299 111.839 209.603C111.606 209.775 111.307 209.377 111.156 209.541C108.459 212.542 109.614 213.491 108.701 215.651C107.787 217.811 104.9 220.101 104.242 220.516C102.526 221.608 104.809 219.149 104.807 219.023C104.769 217.527 103.402 219.72 102.199 221.284C100.842 220.671 99.3179 222.971 100.957 222.909C101.139 222.899 101.916 221.569 102.199 221.284C102.368 223.526 100.764 226.104 97.7344 228.057C96.3154 228.971 96.575 227.34 94.0397 231.376C92.8886 233.207 94.1926 233.109 93.3135 234.823C91.3045 238.736 87.2643 242.808 84.7873 246.555C83.8883 247.915 85.2562 246.939 84.6573 247.879C83.0693 250.376 81.224 252.262 79.6794 254.805C79.54 255.036 80.3907 254.834 79.8626 255.591C75.8687 261.336 72.0421 266.09 67.8067 272.042C65.7605 274.918 62.3685 280.248 60.2006 283.193C57.7829 286.481 54.7679 290.087 52.1353 293.448L51.2245 288.088C53.0832 289.544 54.867 290.883 56.481 291.939C59.4361 293.876 59.1382 292.957 60.5996 293.512C63.4215 294.58 66.8461 298.683 67.2913 299.258C67.3046 299.276 64.748 297.629 65.8988 298.809C66.3104 299.858 67.2618 299.241 67.2913 299.258C67.585 299.634 72.4591 303.253 73.5058 303.86C74.0747 304.19 74.0923 303.532 74.3829 303.713C81.285 308.01 87.9957 312.601 94.5609 317.572C94.6726 317.665 94.1408 318.038 94.4081 318.25C98.1372 321.229 101.058 322.385 104.521 324.297C107.982 326.208 110.438 328.133 111.728 330.335C114.222 331.943 117.423 334.783 119.256 336.429C121.09 338.075 122.057 337.302 122.246 337.407C128.161 340.68 130.933 343.483 136.556 347.602C139.228 349.563 144.688 353.225 147.689 355.195C150.062 356.75 151.294 357.966 153.528 359.332C153.83 359.517 153.845 358.878 153.945 358.924C156.69 360.094 154.797 360.34 155.154 360.877C156.447 362.826 157.288 363.972 160.562 365.81C161.317 366.234 164.442 366.164 165.786 366.984C167.531 368.052 166.515 368.151 168.352 369.256C168.509 369.351 168.717 368.993 169.782 369.771C174.73 373.378 180.035 377.437 185.248 381.085C185.959 381.584 185.429 380.406 186.463 381.119C191.313 384.465 196.567 388.222 201.071 391.794C202.179 392.675 201.191 392.536 201.362 392.824C202.422 394.585 205.292 395.155 205.664 395.392C214.569 401.005 220.503 406.542 229.538 412.321C230.031 412.634 234.434 414.185 235.431 416.241C235.5 416.38 236.465 418.444 238.339 418.83C238.455 418.854 237.784 417.667 239.507 418.962C241.23 420.257 244.281 421.948 246.328 424.181C246.977 424.887 248.135 427.084 250.934 427.973C251.118 428.028 255.81 428.876 256.259 430.906C256.33 431.238 255.262 432.291 258.423 433.605C259.028 433.855 258.274 432.916 259.764 433.721C262.047 434.952 264.6 437.248 267.561 438.543C268.079 438.767 270.575 439.309 271.672 441.02C271.843 441.288 271.101 441.366 271.88 441.987C275.587 444.941 279.819 447.539 283.541 450.598C284.859 451.681 283.689 451.827 285.012 453.028C286.335 454.229 289.132 456.465 290.857 457.242C292.582 458.02 291.663 455.81 293.991 457.337C294.289 457.533 294.587 457.729 294.884 457.927L286.064 459.425C292.557 449.649 299.862 440.572 306.73 431.075C307.78 429.623 306.55 430.571 308.07 428.414C313.674 420.457 323.048 406.508 328.722 400.18C333.268 395.11 328.822 402.395 332.07 398.36C333.636 396.413 333.994 393.357 334.304 392.839C337.324 387.767 340.223 384.811 343.124 380.376C343.723 379.46 342.614 379.988 343.129 379.212C344.884 376.56 347.035 373.989 348.753 371.484C349.523 370.359 349.005 370.299 349.759 369.297C351.56 366.895 353.252 364.843 355.294 362.705C355.48 362.51 354.904 364.305 356.205 362.507C358.311 359.596 361.236 356.203 363.272 352.579C363.875 351.503 363.051 350.859 365.165 349.127C365.608 348.763 366.223 350.064 367.116 346.932C367.268 346.407 369.06 341.353 371.294 339.834C371.883 339.433 373.707 338.636 374.429 337.34C374.523 337.162 373.602 337.491 374.265 336.462C376.608 332.844 379.269 329.197 381.686 325.486C382.331 324.494 380.838 325.594 381.814 324.127C384.497 320.092 388.117 315.246 391.006 311.488C392.071 310.104 391.765 311.366 391.882 311.293C393.758 310.12 393.52 308.469 393.858 307.878C395.971 304.206 398.269 301.899 400.402 298.646C400.992 297.749 400.105 298.052 400.189 297.85C401.081 295.767 400.929 297.682 401.829 296.602C404.352 293.577 406.849 289.981 409.09 286.701C409.913 285.496 408.446 286.465 409.19 285.388C413.585 279.005 418.296 272.471 422.957 266.506C423.836 265.383 423.717 266.397 423.979 266.22C425.801 265.004 426.665 261.942 426.982 261.321C428.418 258.495 429.476 257.751 431.013 255.446C438.514 244.179 448.415 230.72 455.95 220.406C456.701 219.378 457.44 218.368 458.17 217.374L459.598 225.779C447.602 216.974 437.93 209.635 425.912 201.245C425.085 200.667 425.538 201.786 424.82 201.295C415.574 194.927 406.707 188.324 397.425 181.968C396.664 181.446 397.392 182.719 396.158 181.897C393.625 180.215 390.505 177.96 388.113 176.022C386.946 175.077 388.892 175.808 387.71 174.866C384.961 172.672 381.915 170.457 378.916 168.45C377.638 167.597 379.162 169.452 377.531 168.303C366.407 160.488 355.456 152.851 344.725 144.235C343.989 143.644 344.058 142.12 342.282 141.162C341.953 141.365 341.718 141.711 341.444 141.983C325.185 130.699 309.468 119.002 293.322 107.462C292.641 106.976 293.427 108.367 292.107 107.428C284.467 101.994 276.932 96.8795 269.502 90.779C268.764 90.1745 269.854 89.4818 267.463 88.0067C267.04 87.7474 263.503 85.4335 262.463 85.0134C262.319 84.9595 262.624 85.8605 261.505 85.0863C255.006 80.579 248.321 75.6792 242.079 70.8326C241.072 70.0495 242.523 70.35 241.809 69.7881C236.741 65.8056 230.769 62.1221 226.064 58.1224C222.916 55.4434 224.754 55.4877 223.555 53.3968C223.385 53.1014 221.319 51.6075 221.551 51.0513C222.132 49.6488 224.076 49.0422 224.576 47.4628C224.685 47.1238 221.688 45.4462 223.812 45.9466C223.959 45.9836 226.136 47.194 226.794 47.3197C227.252 47.4083 226.974 46.4776 227.823 46.7779C228.672 47.0782 229.158 48.0381 230.497 48.6329C231.837 49.2244 231.716 48.304 234.101 49.8971ZM127.517 343.833C129.034 345.611 130.519 344.097 128.23 343.087C128.117 343.04 127.438 343.743 127.517 343.833ZM154.806 145.897C152.338 147.78 152.272 150.219 154.063 148.927C155.854 147.635 155.556 145.323 154.806 145.897ZM172.036 120.448C169.438 122.851 171.544 125.014 173.201 121.641C173.298 121.446 172.188 120.308 172.036 120.448ZM231.997 59.0335C231.987 58.9928 230.508 57.9101 230.457 57.9072C229.276 57.8848 232.234 60.0493 231.997 59.0335ZM189.081 95.1564C188.128 95.8057 186.705 98.6126 187.889 97.8061C188.843 97.1567 190.267 94.3474 189.081 95.1564ZM222.65 414.072C222.661 414.118 223.716 414.901 223.797 414.742C224.053 414.227 222.469 413.3 222.65 414.072ZM219.04 52.8723C214.519 59.0521 209.832 61.4189 214.883 54.779C215.797 53.5766 213.638 57.8856 214.93 56.4461C217.293 53.8113 217.389 51.016 220.138 48.5668C220.637 48.1244 219.303 52.523 219.035 52.8854C219.037 52.8811 219.039 52.8767 219.04 52.8723ZM127.126 346.64C127.147 346.688 128.615 347.762 128.667 347.765C129.855 347.793 126.897 345.629 127.126 346.64ZM284.434 459.496C284.482 459.603 287.893 462.09 288.036 462.126C290.461 462.514 283.568 457.481 284.434 459.496ZM63.2238 268.552C63.827 266.546 65.1367 264.564 66.737 263.759C65.5593 265.342 64.405 266.958 63.2238 268.552Z" fill="#0A0A0A"></path>
<path d="M229.128 46.369C231.738 47.9969 234.907 50.4849 237.247 52.4731C237.981 53.0955 237.37 53.1172 237.867 53.5605C238.839 54.4271 239.928 54.9764 240.871 55.8566C241.183 56.1498 240.412 56.3239 240.747 56.6203C242.583 58.2415 244.549 59.4526 246.489 60.9822C256.043 68.517 265.658 75.6093 275.535 82.9459C278.792 85.3645 282.505 88.6527 286.056 90.8867C286.471 91.147 286.532 90.5576 286.632 90.5767C288.199 90.8903 287.201 91.459 287.898 92.1232C290.666 94.7573 294.069 97.2296 297.152 99.1734C298.465 99.9991 297.792 98.2649 298.731 99.6362C298.796 99.7306 298.159 99.95 298.471 100.243C299.181 100.908 300.728 101.885 301.311 102.353C302.434 103.255 302.632 103.389 303.738 104.181C305.247 105.268 306.893 106.77 308.593 107.824C308.956 108.047 308.821 107.263 309.431 107.578C310.04 107.894 311.48 108.973 311.898 109.432C312.316 109.891 311.85 110.102 311.879 110.246C312.105 111.454 314.486 111.693 314.721 111.824C318.99 114.242 322.014 117.214 325.752 119.863C328.567 121.857 331.7 123.812 334.367 125.737L336.872 127.419L335.101 130.055C335.085 130.077 335.069 130.099 335.053 130.121C332.74 133.314 330.558 135.864 328.385 139.018C328.155 139.35 328.967 139.346 328.688 139.753C325.715 144.076 322.642 148.282 319.256 152.284C318.916 152.685 318.834 151.799 318.466 152.18C316.223 154.517 312.356 157.989 313.313 161.002C311.977 162.715 310.369 164.805 308.831 166.094C307.839 166.926 308.028 165.569 307.358 166.979C307.206 167.296 307.918 167.249 307.656 167.701C306.554 169.604 305.023 171.451 304.003 173.383C303.796 173.777 304.27 173.966 304.271 174.119C304.253 175.393 302.268 176.126 301.976 176.387C299.77 178.377 298.753 180.252 297.177 182.446C296.811 182.955 297.783 182.735 297.45 183.239C295.717 185.846 293.795 188.456 291.782 190.783C291.333 191.3 291.233 190.461 290.994 190.691C289.949 191.71 290.639 192.589 289.653 193.578C289.446 193.787 289.145 193.373 289.071 193.386C287.909 193.577 288.459 194.851 288.357 195.04C287.089 197.446 285.082 198.135 283.717 200.361C283.555 200.628 284.463 200.41 283.976 201.139C280.738 205.997 277.028 210.933 273.285 215.36C272.704 216.048 272.698 215.259 272.619 215.272C271.361 215.509 271.988 216.684 271.855 216.949C270.781 219.02 268.718 220.202 268.966 222.303C264.101 228.478 259.929 235.109 255.034 241.197L253.888 242.904L252.091 241.697C250.592 240.492 249.126 239.242 247.707 237.928C247.615 237.845 248.135 237.494 247.95 237.33C245.723 235.346 245.66 236.419 243.415 236.193C242.85 236.136 242.404 234.168 242.352 234.011C242.167 233.434 243.082 233.013 242.991 232.862C242.216 231.634 240.724 234.114 239.247 233.067C239.204 233.031 239.705 232.735 239.612 232.604C239.322 232.196 238.818 232.097 238.547 231.68C237.93 230.723 238.434 229.362 236.644 229.093C236.416 229.061 235.724 230.576 234.45 229.578C233.943 229.178 231.6 227.55 231.009 227.001C230.419 226.453 231.171 226.34 231.138 226.288C229.787 224.474 230.619 224.71 230.338 223.244C230.054 221.782 228.878 223.956 228.361 223.925C227.844 223.893 226.89 222.51 226.69 222.123C226.489 221.735 227.078 221.742 226.862 221.45C225.427 219.524 225.339 221.863 224.5 221.745C222.519 221.47 222.445 219.186 221.223 218.1C220.892 217.807 220.945 218.352 220.603 218.157C219.253 217.381 218.821 216.378 217.081 215.782C216.796 215.684 215 215.751 214.712 214.562C214.672 214.392 215.238 214.237 214.758 213.772C214.041 213.077 212.647 211.966 211.694 211.476C210.99 211.114 211.29 212.243 210.621 211.483C210.323 211.145 211.238 211.259 210.659 210.653C210.082 210.05 208.363 208.854 207.705 208.405C207.047 207.958 207.074 208.672 207 208.666C206.556 208.619 205.153 207.959 205.043 207.88C199.454 203.999 194.889 199.589 189.303 196.014C188.866 195.732 188.802 196.42 188.732 196.382C187.135 195.557 189.199 195.073 188.493 193.919C187.938 195.013 187.466 194.409 186.367 193.792C185.837 193.495 185.833 194.069 185.76 194.076C184.617 194.139 184.641 193.027 184.619 192.78C184.537 191.871 183.536 192.166 183.475 191.554C183.412 190.946 184.564 190.927 183.578 190.238C183.052 190.397 183.123 191.839 182.272 191.461C179.061 190.035 174.333 185.589 172.127 183.911C169.927 182.236 169.152 181.785 167.93 180.725C165.721 178.81 166.104 180.114 164.408 179.383C162.707 178.648 164.624 177.469 164.669 176.955C164.718 176.444 164.225 176.656 164.108 176.273C163.991 175.89 164.726 176.04 164.171 175.534C163.615 175.027 161.494 174.493 161.009 174.72C159.983 175.201 160.133 176.577 158.734 175.138C158.654 175.055 159.27 174.824 158.947 174.527C156.374 172.188 153.464 170.092 150.867 167.794C150.51 167.477 151.207 167.229 151.003 167.039C148.884 165.06 149.13 166.487 147.189 166.502C148.351 165.475 148.176 164.217 146.402 162.948C145.336 162.184 145.139 162.853 144.178 162.741C143.89 162.708 143.395 161.802 143.079 161.958C142.04 162.464 142.096 163.894 140.525 162.228L139.023 161.219L140.085 159.638C140.086 159.638 140.087 159.637 140.087 159.636C140.114 159.612 140.164 159.669 140.229 159.74L139.268 161.171L140.627 162.084C140.721 161.999 140.842 161.891 140.841 161.782L139.781 161.07L140.53 159.954C140.573 159.954 140.616 159.935 140.657 159.887C142.112 158.217 141.399 157.389 142.673 155.372C143.671 153.791 146.12 151.457 147.436 149.784C148.795 150.803 149.64 148.94 149.156 147.599C149.994 146.501 150.802 145.248 151.705 144.254C152.016 143.912 152.242 144.442 152.319 144.425C153.512 144.184 152.931 143.036 153.066 142.767C154.58 139.884 156.806 138.238 157.9 135.238C157.939 135.132 157.079 134.305 158.258 134.131C158.337 134.122 158.186 135.262 159.058 134.105C159.931 132.947 162.027 131.085 162.746 129.128C162.92 128.654 162.852 127.096 164.034 126.723C164.193 126.674 164.386 126.988 164.649 126.941C165.494 126.787 164.716 125.824 165.959 125.821C167.203 125.818 168.691 125.032 169.295 122.973C169.316 122.908 168.824 121.97 169.205 121.458C169.814 120.642 170.812 119.576 171.422 118.705C171.714 118.288 171.047 118.214 171.089 118.136C172.803 115.153 174.639 113.469 176.947 110.609C177.371 110.085 177.837 108.046 179.106 107.35C180.497 106.585 181.997 109.45 183.338 106.373C183.881 105.134 181.872 101.651 184.794 100.805C187.083 96.7665 190.345 93.8438 192.479 89.6791C192.575 89.4921 192.124 88.3648 192.419 87.9735C192.858 87.3937 193.478 87.3442 193.804 86.939C195.179 85.2484 195.998 83.3893 197.263 81.7158C197.743 81.0799 197.984 81.5921 198.556 80.8337C199.127 80.0754 198.964 79.1838 199.964 78.3164C200.72 77.6626 202.364 77.6383 203.236 76.6765C202.197 75.8792 202.732 75.1727 203.361 73.6895C203.481 73.404 202.922 73.405 202.96 73.2564C203.105 72.6456 203.725 72.4245 203.836 71.8257C203.864 71.6805 203.503 71.4167 203.506 71.2834C203.51 70.14 205.221 69.4653 205.517 69.3508C206.646 68.9084 206.446 68.1856 207.11 67.7028C207.772 67.2209 207.367 68.3572 208.022 67.7093C209.378 66.366 210.717 64.354 211.838 62.8085C212.284 62.1903 211.496 62.269 211.549 62.1725C212.337 60.8001 213.777 59.8679 213.313 58.4679C216.451 59.3548 213.62 57.5206 215.424 56.0399C215.568 55.924 216.883 56.5806 216.663 57.2595C216.443 57.9382 215.475 58.5176 215.199 59.4806C215.133 59.7083 215.502 61.5414 215.468 61.7318C215.201 63.222 213.318 62.124 213.179 62.1142C211.654 62.0398 211.943 64.166 211.787 64.561C211.074 66.3687 209.897 67.4995 209.254 68.9785C208.832 69.9443 209.933 70.8496 209.429 71.4855C207.752 73.5997 205.59 73.2189 205.523 76.285C205.508 76.9413 207.088 77.3995 204.963 78.2833C204.829 78.3387 203.079 78.873 203.171 79.9647C203.183 80.102 203.555 80.3614 203.506 80.4964C203.169 81.3964 202.516 81.6929 202.071 82.6182C201.627 83.5434 201.133 84.6849 200.339 85.5382C199.861 86.0528 198.656 86.293 198.295 86.4453C197.265 86.8684 197.477 88.2561 196.551 88.3145C195.62 88.3748 195.388 86.8008 194.114 87.7873C195.041 88.5149 195.95 89.3209 196.863 90.0806C194.874 92.8122 192.64 95.3032 190.72 98.0981C190.483 98.4453 191.248 98.4608 191.007 98.8424C189.989 100.451 188.661 101.544 187.667 103.256C186.899 104.582 186.477 106.334 185.691 107.733C184.029 107.749 183.032 109.944 181.936 111.276C181.553 111.743 181.283 111.502 180.939 111.783C179.65 112.85 181.059 112.921 180.955 113.391C180.507 115.404 178.216 113.978 176.973 115.845C176.906 115.943 177.237 117.958 177.195 118.173C176.935 119.546 176.665 118.055 176.119 118.642C175.121 119.714 174.257 120.338 173.615 121.97C173.429 122.448 173.47 123.937 172.347 124.323C172.2 124.374 171.853 124.042 171.771 124.109C170.324 125.349 171.512 126.251 171.313 127.405C171.113 128.559 169.329 129.294 168.895 129.393C167.767 129.657 169.013 128.66 168.979 128.578C168.568 127.609 168.005 128.669 167.417 129.367C166.148 128.628 165.484 129.716 166.812 130.093C166.958 130.133 167.257 129.477 167.417 129.367C168.125 130.848 167.466 132.094 165.48 132.577C164.549 132.802 164.347 131.821 163.295 133.767C162.818 134.649 163.861 134.918 163.577 135.793C162.925 137.794 160.649 139.379 159.572 141.153C159.181 141.797 160.054 141.519 159.802 141.97C159.136 143.168 158.103 143.909 157.484 145.148C157.428 145.26 158.074 145.347 157.833 145.698C156.021 148.369 154.094 150.446 152.136 153.188C151.19 154.513 149.766 157.07 148.738 158.409C147.592 159.904 146.038 161.45 144.735 162.938L143.824 157.578C144.647 158.298 145.451 158.942 146.218 159.397C147.621 160.233 147.664 159.556 148.46 159.639C149.999 159.796 151.153 162.289 151.293 162.647C151.297 162.658 150.075 161.958 150.514 162.633C150.511 163.387 151.278 162.64 151.293 162.647C151.386 162.88 153.593 164.607 154.11 164.838C154.391 164.964 154.57 164.42 154.71 164.494C158.046 166.261 161.184 168.318 164.132 170.723C164.18 170.77 163.744 171.211 163.862 171.317C165.497 172.81 167.078 173.014 168.813 173.701C170.548 174.388 171.634 175.341 171.901 176.818C173.093 177.501 174.425 179.015 175.182 179.898C175.94 180.781 176.757 179.901 176.852 179.939C179.815 181.118 180.881 182.71 183.441 184.656C184.657 185.583 187.229 187.196 188.654 188.048C189.781 188.719 190.262 189.402 191.348 189.954C191.494 190.029 191.667 189.501 191.719 189.513C193.183 189.774 191.906 190.457 191.998 190.807C192.332 192.075 192.58 192.801 194.214 193.474C194.59 193.63 196.613 192.778 197.267 193.108C198.115 193.54 197.438 193.88 198.336 194.318C198.412 194.356 198.637 194.009 199.122 194.376C201.379 196.075 203.751 198.052 206.168 199.716C206.498 199.945 206.457 199.114 206.939 199.435C209.2 200.945 211.616 202.688 213.598 204.47C214.084 204.91 213.486 205.047 213.523 205.24C213.755 206.414 215.451 206.151 215.63 206.25C219.916 208.587 222.315 211.616 226.643 214.055C226.88 214.186 229.31 214.338 229.427 215.769C229.436 215.865 229.53 217.312 230.634 217.152C230.703 217.142 230.574 216.34 231.35 216.963C232.127 217.586 233.655 218.196 234.4 219.505C234.637 219.919 234.821 221.426 236.391 221.442C236.495 221.44 239.29 220.943 239.062 222.492C239.023 222.746 238.07 223.881 239.764 224.154C240.089 224.205 239.844 223.627 240.595 223.908C241.746 224.336 242.801 225.569 244.372 225.877C244.647 225.929 246.11 225.739 246.379 226.862C246.421 227.038 245.925 227.291 246.267 227.601C247.894 229.08 249.949 230.134 251.559 231.694C252.13 232.246 251.341 232.664 251.885 233.312C252.429 233.959 253.654 235.081 254.563 235.279C255.473 235.478 255.445 233.9 256.55 234.56C256.692 234.644 256.833 234.73 256.973 234.816L248.153 236.315C250.989 231.693 254.667 227.727 257.881 223.379C258.373 222.715 257.606 223.011 258.303 222.013C260.873 218.333 265.009 211.767 268.05 209.149C270.487 207.052 268.695 210.596 270.331 208.833C271.12 207.982 270.636 206.112 270.758 205.858C271.943 203.372 273.568 202.213 274.818 200.105C275.076 199.669 274.301 199.726 274.526 199.359C275.29 198.104 276.399 197.002 277.17 195.831C277.515 195.305 277.075 195.134 277.438 194.683C278.304 193.6 279.169 192.714 280.299 191.861C280.402 191.784 280.386 192.789 280.995 191.966C281.981 190.634 283.516 189.201 284.263 187.393C284.483 186.856 283.644 186.233 284.936 185.659C285.206 185.538 286.041 186.53 285.977 184.747C285.968 184.449 286.152 181.662 287.596 181.255C287.977 181.148 289.269 181.101 289.531 180.452C289.564 180.362 288.892 180.339 289.174 179.848C290.174 178.121 291.427 176.458 292.465 174.692C292.741 174.22 291.798 174.546 292.224 173.852C293.397 171.946 295.132 169.757 296.544 168.081C297.065 167.463 297.136 168.196 297.212 168.178C298.452 167.903 297.837 166.783 297.963 166.489C298.761 164.671 300.059 163.775 300.98 162.23C301.235 161.805 300.585 161.774 300.602 161.665C300.804 160.556 301.166 161.746 301.629 161.282C302.928 159.982 304.06 158.31 305.063 156.775C305.431 156.211 304.475 156.46 304.811 155.958C306.789 152.98 308.989 149.986 311.293 147.344C311.727 146.847 311.887 147.467 312.058 147.42C313.241 147.104 313.171 145.359 313.273 145.041C313.731 143.593 314.409 143.385 315.083 142.296C318.365 136.974 323.058 130.856 326.61 126.155C326.964 125.686 327.314 125.226 327.659 124.774L329.087 133.179C323.629 129.013 319.29 125.457 313.712 121.637C313.329 121.373 313.335 122.176 312.999 121.956C308.686 119.088 304.676 115.931 300.336 113.082C299.981 112.847 300.124 113.706 299.541 113.346C298.344 112.611 296.915 111.557 295.874 110.576C295.365 110.098 296.428 110.203 295.909 109.731C294.703 108.632 293.312 107.591 291.898 106.709C291.295 106.335 291.801 107.468 291.046 106.941C285.897 103.364 280.812 99.8899 276.118 95.5571C275.796 95.26 276.228 93.9933 275.332 93.6595C275.069 93.9096 274.83 94.2533 274.585 94.5461C267.023 89.4318 259.913 83.8417 252.488 78.4894C252.175 78.2638 252.325 79.204 251.717 78.7702C248.196 76.2598 244.663 73.9836 241.446 70.8732C241.127 70.5654 242.002 69.7205 240.843 69.1197C240.638 69.0146 238.957 68.0175 238.396 67.9378C238.318 67.9301 238.285 68.591 237.763 68.241C234.739 66.1995 231.696 63.8838 228.924 61.4987C228.477 61.1129 229.331 60.9903 229.016 60.7113C226.777 58.7359 223.882 57.2356 221.88 55.1539C220.542 53.7587 221.71 53.3276 221.472 51.9189C221.438 51.72 220.492 51.0211 220.783 50.506C221.512 49.209 222.914 48.2174 223.636 46.7959C223.792 46.4903 222.296 45.8774 223.531 45.7475C223.616 45.7404 224.705 46.1789 225.095 46.1145C225.367 46.0708 225.425 45.3786 225.893 45.4088C226.362 45.4391 226.429 46.1022 227.137 46.2493C227.847 46.3933 228.003 45.6697 229.128 46.369ZM178.6 183.866C179.121 184.937 180.459 183.318 179.247 183.073C179.187 183.063 178.572 183.812 178.6 183.866ZM191.363 94.3739C189.819 94.9541 190.385 96.5025 191.524 96.1289C192.663 95.755 191.832 94.1964 191.363 94.3739ZM199.013 82.4266C197.495 83.3078 199.771 85.2309 200.271 83.4884C200.301 83.3877 199.101 82.3749 199.013 82.4266ZM225.455 54.392C225.459 54.361 224.786 53.8498 224.753 53.8606C224.001 54.1424 225.349 55.1643 225.455 54.392ZM206.551 70.5332C205.935 70.7074 205.483 72.1465 206.249 71.9303C206.865 71.756 207.318 70.3159 206.551 70.5332ZM221.778 217.241C221.774 217.276 222.251 217.65 222.344 217.499C222.639 217.012 221.858 216.655 221.778 217.241ZM220.354 51.0212C218.219 53.8365 214.98 54.1634 217.431 51.1874C217.875 50.6484 217.2 52.864 217.894 52.269C219.161 51.1795 218.528 49.4102 220.158 48.5379C220.455 48.3809 220.48 50.8638 220.353 51.0283C220.353 51.026 220.353 51.0236 220.354 51.0212ZM177.635 186.265C177.636 186.3 178.305 186.806 178.338 186.796C179.093 186.517 177.745 185.495 177.635 186.265ZM249.869 238.76C249.873 238.835 251.429 240.006 251.512 239.999C252.969 239.7 249.826 237.329 249.869 238.76ZM147.492 149.783C147.477 148.65 148.046 147.711 149.153 147.602C148.59 148.318 148.055 149.061 147.492 149.783Z" fill="#0A0A0A"></path>
<path d="M231.799 48.2643C235.98 51.0072 241.21 54.9568 245.115 58.0558C246.34 59.0263 245.48 58.8718 246.316 59.5554C247.95 60.8919 249.656 61.8791 251.255 63.2238C251.783 63.6709 250.743 63.6534 251.305 64.1112C254.387 66.6169 257.532 68.6647 260.735 71.0903C276.509 83.0384 292.238 94.4688 308.412 106.273C313.745 110.164 319.981 115.243 325.677 118.998C326.342 119.436 326.254 118.741 326.402 118.794C328.716 119.638 327.469 120.03 328.654 121.04C333.358 125.048 338.913 129.047 343.859 132.313C345.965 133.701 344.497 131.403 346.234 133.341C346.355 133.474 345.516 133.551 346.046 133.999C347.248 135.013 349.73 136.654 350.696 137.392C352.555 138.817 352.874 139.037 354.677 140.323C357.138 142.086 359.917 144.391 362.637 146.17C363.219 146.548 362.795 145.559 363.752 146.12C364.71 146.683 367.07 148.416 367.799 149.095C368.527 149.774 367.929 149.891 368.013 150.075C368.691 151.603 372.137 152.598 372.509 152.826C379.277 157.016 384.443 161.508 390.526 165.822C395.106 169.068 400.127 172.362 404.477 175.481L406.991 177.206L405.211 179.799C405.185 179.835 405.159 179.871 405.134 179.907C401.389 185.119 397.993 189.378 394.428 194.493C394.051 195.033 395.036 194.786 394.577 195.445C389.699 202.453 384.734 209.326 379.452 216.001C378.921 216.67 379.084 215.439 378.526 216.087C375.12 220.064 369.412 226.132 369.678 230.118C367.554 232.942 364.989 236.381 362.746 238.664C361.3 240.136 361.93 238.156 360.701 240.354C360.423 240.849 361.299 240.57 360.849 241.289C358.951 244.313 356.551 247.384 354.744 250.426C354.378 251.045 354.895 251.172 354.85 251.389C354.451 253.2 351.832 254.828 351.402 255.283C348.143 258.758 346.357 261.716 343.8 265.293C343.206 266.122 344.447 265.524 343.895 266.336C341.026 270.544 337.928 274.813 334.802 278.708C334.105 279.574 334.233 278.414 333.876 278.811C332.309 280.565 332.883 281.607 331.398 283.301C331.086 283.659 330.844 283.161 330.75 283.2C329.287 283.816 329.576 285.458 329.397 285.756C327.149 289.542 324.516 291.114 322.206 294.673C321.93 295.099 323.093 294.522 322.288 295.699C316.93 303.544 310.98 311.639 305.138 319.023C304.231 320.171 304.458 319.053 304.359 319.095C302.766 319.804 303.176 321.284 302.937 321.699C301.024 324.952 298.177 327.239 297.856 330.144C290.139 340.337 283.127 350.972 275.4 361.051L274.224 362.764L272.457 361.551C269.975 359.648 267.526 357.702 265.126 355.691C264.971 355.563 265.604 355.293 265.293 355.04C261.549 351.98 261.777 353.259 258.529 352.321C257.711 352.084 256.495 349.571 256.376 349.365C255.943 348.613 257.115 348.374 256.94 348.164C255.478 346.449 254.099 349.008 251.695 347.304C251.622 347.246 252.245 347.037 252.074 346.851C251.543 346.271 250.8 346.002 250.292 345.418C249.133 344.077 249.445 342.579 246.828 341.723C246.496 341.617 245.963 343.246 243.862 341.66C243.025 341.026 239.221 338.362 238.221 337.523C237.222 336.684 238.255 336.77 238.193 336.698C235.74 334.103 236.991 334.635 236.157 332.778C235.321 330.923 234.298 333.206 233.557 333.016C232.814 332.824 231.053 330.868 230.654 330.34C230.255 329.812 231.091 329.994 230.699 329.577C228.095 326.821 228.663 329.626 227.439 329.234C224.549 328.315 223.767 325.529 221.713 323.853C221.158 323.4 221.394 324.075 220.852 323.738C218.708 322.399 217.799 321.057 215.156 319.821C214.724 319.618 212.198 319.167 211.437 317.643C211.331 317.425 212.086 317.405 211.268 316.7C210.045 315.646 207.742 313.89 206.245 313.014C205.141 312.368 205.9 313.823 204.726 312.705C204.204 312.208 205.535 312.616 204.534 311.712C203.538 310.811 200.747 308.855 199.681 308.117C198.616 307.38 198.866 308.252 198.759 308.223C198.116 308.035 195.931 306.82 195.753 306.693C186.681 300.341 178.905 293.652 169.928 287.671C169.224 287.201 169.338 288.014 169.227 287.948C166.72 286.476 169.502 286.501 168.159 284.897C167.696 286.055 166.849 285.185 165.108 284.112C164.268 283.596 164.433 284.289 164.332 284.277C162.73 284.014 162.435 282.676 162.331 282.371C161.944 281.246 160.613 281.306 160.345 280.548C160.076 279.793 161.703 280.111 160.102 278.986C159.403 279.023 159.932 280.789 158.614 280.079C153.639 277.402 145.62 270.621 141.997 267.937C138.382 265.259 137.151 264.483 135.104 262.839C131.407 259.868 132.335 261.558 129.714 260.171C127.086 258.779 129.454 257.919 129.366 257.311C129.284 256.707 128.648 256.818 128.368 256.319C128.089 255.821 129.175 256.22 128.238 255.443C127.301 254.666 124.136 253.391 123.516 253.522C122.203 253.8 122.824 255.51 120.415 253.354C120.277 253.23 121.081 253.132 120.536 252.678C116.196 249.085 111.451 245.686 107.089 242.137C106.489 241.648 107.403 241.553 107.058 241.263C103.468 238.241 104.24 240.041 101.493 239.483C102.836 238.585 102.214 237.011 99.3246 234.95C97.5877 233.71 97.5056 234.46 96.111 234.041C95.6922 233.916 94.7228 232.673 94.3202 232.767C92.9982 233.072 93.5004 234.819 90.7808 232.337L89.2738 231.303L90.3409 229.748C90.3419 229.747 90.3429 229.746 90.344 229.745C90.3829 229.703 90.4276 229.768 90.4844 229.85L89.5184 231.258L90.8827 232.194C90.9909 232.119 91.1296 232.023 91.0967 231.892L90.0326 231.162L90.786 230.064C90.838 230.051 90.8956 230.011 90.9596 229.931C93.2144 227.134 92.5977 226.17 94.7363 222.934C96.4124 220.397 100.067 216.364 102.155 213.603C103.498 214.645 105.072 211.755 104.884 209.996C106.223 208.193 107.572 206.176 108.96 204.5C109.437 203.923 109.554 204.607 109.652 204.561C111.167 203.865 110.803 202.41 111.047 201.989C113.733 197.454 116.913 194.463 119.126 189.886C119.205 189.723 118.41 188.806 119.887 188.211C119.986 188.175 119.465 189.836 120.864 187.936C122.263 186.037 125.351 182.776 126.8 179.789C127.152 179.067 127.531 176.878 129.072 175.999C129.278 175.883 129.419 176.27 129.751 176.127C130.819 175.658 130.163 174.523 131.669 174.151C133.175 173.778 135.208 172.223 136.549 169.125C136.594 169.028 136.275 167.843 136.888 167.005C137.868 165.667 139.39 163.862 140.387 162.446C140.864 161.769 140.078 161.862 140.153 161.738C143.109 157.003 145.831 154.071 149.471 149.333C150.139 148.466 151.306 145.438 153.048 144.076C154.959 142.579 155.925 146.196 158.459 141.438C159.484 139.52 158.083 135.178 161.87 133.113C165.837 126.711 170.65 121.602 174.466 115.067C174.638 114.773 174.426 113.309 174.899 112.667C175.602 111.715 176.366 111.461 176.881 110.791C179.046 107.987 180.588 105.109 182.614 102.362C183.383 101.319 183.523 101.974 184.439 100.729C185.355 99.4852 185.422 98.2698 186.889 96.7442C187.998 95.5933 189.995 95.072 191.335 93.4503C190.314 92.6279 191.17 91.4683 192.37 89.1796C192.6 88.7393 191.923 88.9063 192.013 88.6844C192.37 87.7756 193.186 87.2787 193.498 86.3969C193.575 86.1828 193.216 85.9158 193.258 85.7262C193.602 84.1042 195.873 82.641 196.265 82.3911C197.762 81.4297 197.734 80.4643 198.68 79.5834C199.625 78.7041 198.798 80.4346 199.782 79.3224C201.821 77.0168 204.037 73.7683 205.852 71.2455C206.574 70.2373 205.598 70.5821 205.69 70.4298C207.051 68.2509 209.069 66.5033 208.922 64.6562C212.457 64.9839 209.574 63.2226 212.197 60.5892C212.404 60.3825 213.802 60.9236 213.334 61.9511C212.867 62.9783 211.524 64.0864 210.905 65.533C210.758 65.8752 210.661 68.3644 210.563 68.6443C209.799 70.8357 207.845 69.8371 207.68 69.8643C205.856 70.2107 205.577 73.1385 205.271 73.7447C203.873 76.5182 202.114 78.4696 200.898 80.7564C200.1 82.2506 201.165 83.2075 200.366 84.2583C197.711 87.7517 195.207 87.8523 194.219 92.218C194.005 93.153 195.782 93.3342 192.948 95.2166C192.77 95.3347 190.494 96.6103 190.283 98.1303C190.256 98.3214 190.629 98.5791 190.529 98.7851C189.855 100.161 188.977 100.774 188.165 102.217C187.353 103.66 186.418 105.425 185.204 106.869C184.474 107.74 182.944 108.438 182.461 108.761C181.09 109.665 180.935 111.57 179.798 111.926C178.654 112.288 178.839 110.125 177.005 111.901C177.911 112.658 178.773 113.531 179.652 114.338C176.436 118.799 172.994 122.991 169.844 127.521C169.455 128.083 170.375 127.879 169.971 128.491C168.263 131.073 166.331 133.016 164.621 135.736C163.299 137.844 162.27 140.452 160.905 142.668C158.888 143.182 157.031 146.59 155.311 148.801C154.709 149.577 154.454 149.315 153.954 149.816C152.078 151.71 153.762 151.394 153.497 152.09C152.359 155.077 150.008 153.734 147.952 156.748C147.842 156.907 147.646 159.665 147.53 159.982C146.809 162.006 146.925 159.972 146.089 160.966C144.564 162.78 143.334 163.921 142.073 166.425C141.707 167.156 141.315 169.256 139.842 170.135C139.649 170.251 139.328 169.884 139.209 170.003C137.09 172.188 138.261 173.116 137.678 174.81C137.095 176.505 134.718 178.075 134.164 178.344C132.719 179.053 134.523 177.271 134.506 177.165C134.295 175.912 133.3 177.581 132.382 178.744C131.066 178.073 129.94 179.812 131.435 179.954C131.601 179.966 132.156 178.948 132.382 178.744C132.801 180.634 131.634 182.595 129.087 183.869C127.894 184.464 127.94 183.133 126.091 186.202C125.252 187.594 126.436 187.666 125.832 188.992C124.451 192.02 121.227 194.94 119.398 197.774C118.734 198.803 119.873 198.15 119.435 198.864C118.273 200.76 116.804 202.116 115.687 204.055C115.587 204.231 116.343 204.163 115.948 204.732C112.963 209.054 110.016 212.57 106.835 217.036C105.298 219.194 102.816 223.241 101.176 225.443C99.3469 227.901 97.008 230.553 94.9907 233.047L94.08 227.688C95.459 228.803 96.7894 229.82 98.0115 230.598C100.248 232.025 100.108 231.218 101.262 231.555C103.49 232.201 105.864 235.559 106.167 236.034C106.176 236.049 104.238 234.84 105.059 235.786C105.279 236.699 106.145 236.021 106.167 236.034C106.368 236.344 110.008 239.087 110.81 239.52C111.245 239.756 111.337 239.151 111.559 239.282C116.81 242.408 121.868 245.826 126.759 249.61C126.841 249.682 126.354 250.086 126.552 250.249C129.312 252.54 131.612 253.255 134.275 254.6C136.938 255.945 138.76 257.42 139.576 259.287C141.468 260.467 143.803 262.693 145.139 263.986C146.475 265.279 147.372 264.456 147.518 264.531C152.066 266.834 154.049 269.077 158.254 272.19C160.253 273.672 164.376 276.386 166.648 277.838C168.444 278.984 169.328 279.954 171.031 280.943C171.261 281.077 171.349 280.49 171.427 280.52C173.579 281.269 171.971 281.717 172.206 282.168C173.055 283.802 173.621 284.753 176.136 286.052C176.716 286.352 179.331 285.92 180.355 286.513C181.685 287.287 180.826 287.498 182.229 288.294C182.348 288.363 182.564 288.01 183.361 288.597C187.063 291.321 191.011 294.417 194.93 297.147C195.464 297.521 195.161 296.503 195.939 297.035C199.591 299.531 203.531 302.356 206.868 305.1C207.689 305.777 206.881 305.765 206.99 306.01C207.667 307.499 209.994 307.683 210.277 307.856C217.044 311.953 221.342 316.33 228.198 320.562C228.573 320.791 232.062 321.695 232.652 323.462C232.694 323.581 233.256 325.359 234.773 325.493C234.868 325.501 234.447 324.492 235.732 325.476C237.017 326.46 239.363 327.651 240.808 329.456C241.266 330.027 241.973 331.905 244.203 332.39C244.351 332.418 248.164 332.644 248.3 334.451C248.32 334.747 247.306 335.838 249.787 336.671C250.263 336.828 249.745 336.056 250.892 336.618C252.652 337.478 254.511 339.282 256.829 340.12C257.234 340.265 259.252 340.468 259.966 341.907C260.078 342.132 259.449 342.291 260.026 342.768C262.77 345.04 265.995 346.923 268.739 349.288C269.712 350.126 268.718 350.398 269.68 351.342C270.643 352.287 272.713 354.007 274.06 354.517C275.408 355.026 274.901 353.109 276.663 354.235C276.889 354.379 277.114 354.524 277.339 354.67L268.519 356.169C273.319 348.778 278.946 342.066 284.123 334.952C284.914 333.865 283.898 334.511 285.038 332.891C289.237 326.913 296.187 316.381 300.643 311.77C304.213 308.076 300.995 313.629 303.497 310.646C304.703 309.206 304.671 306.699 304.895 306.303C307.065 302.428 309.375 300.304 311.511 296.945C311.953 296.252 310.998 296.562 311.379 295.976C312.675 293.97 314.345 292.079 315.624 290.191C316.197 289.343 315.715 289.232 316.289 288.485C317.656 286.694 318.966 285.181 320.586 283.638C320.733 283.497 320.416 284.927 321.398 283.58C322.985 281.399 325.267 278.914 326.706 276.131C327.132 275.304 326.301 274.67 328.035 273.473C328.398 273.222 329.114 274.38 329.564 271.872C329.642 271.452 330.69 267.448 332.558 266.443C333.051 266.178 334.629 265.728 335.138 264.732C335.204 264.595 334.398 264.76 334.884 263.98C336.606 261.238 338.615 258.509 340.394 255.698C340.868 254.947 339.63 255.688 340.352 254.579C342.336 251.529 345.083 247.913 347.288 245.119C348.102 244.089 347.97 245.107 348.068 245.059C349.65 244.301 349.237 242.896 349.477 242.443C350.982 239.628 352.817 237.975 354.389 235.512C354.824 234.834 354.047 234.982 354.1 234.823C354.672 233.191 354.758 234.771 355.456 233.975C357.412 231.749 359.278 229.043 360.946 226.571C361.558 225.663 360.327 226.299 360.883 225.488C364.159 220.68 367.708 215.784 371.278 211.357C371.952 210.524 371.961 211.356 372.182 211.239C373.708 210.439 374.14 207.987 374.357 207.506C375.341 205.317 376.223 204.822 377.36 203.08C382.909 194.564 390.399 184.503 396.091 176.786C396.658 176.017 397.217 175.262 397.769 174.519L399.197 182.923C390.227 176.265 383.022 170.677 373.985 164.402C373.364 163.969 373.61 164.942 373.069 164.576C366.106 159.828 359.487 154.82 352.492 150.087C351.918 149.698 352.376 150.779 351.443 150.171C349.529 148.928 347.191 147.228 345.424 145.733C344.562 145.005 346.099 145.446 345.224 144.722C343.189 143.034 340.909 141.363 338.643 139.876C337.678 139.245 338.731 140.766 337.505 139.905C329.147 134.051 320.91 128.34 312.973 121.707C312.429 121.252 312.666 119.847 311.297 119.178C310.999 119.402 310.762 119.747 310.501 120.029C298.267 111.6 286.533 102.73 274.424 94.0534C273.913 93.6877 274.405 94.8701 273.415 94.165C267.681 90.0843 261.998 86.2832 256.518 81.5665C255.973 81.0993 256.964 80.3362 255.143 79.2657C254.821 79.0778 252.143 77.3733 251.324 77.1107C251.211 77.0782 251.36 77.8681 250.517 77.2902C245.627 73.9241 240.626 70.2202 235.991 66.5128C235.243 65.9136 236.418 66.0183 235.888 65.5873C232.13 62.5337 227.581 59.8606 224.128 56.7486C221.817 54.6637 223.345 54.488 222.591 52.7128C222.484 52.462 220.936 51.3361 221.196 50.799C221.845 49.4453 223.538 48.6604 224.14 47.1542C224.271 46.8306 221.969 45.6458 223.682 45.8545C223.8 45.871 225.473 46.7242 226.008 46.7619C226.379 46.7893 226.257 45.969 226.93 46.1443C227.603 46.3197 227.895 47.1422 228.942 47.5298C229.99 47.9142 229.998 47.0848 231.799 48.2643ZM151.158 269.8C152.215 271.25 153.631 269.688 151.84 269.032C151.752 269.002 151.103 269.726 151.158 269.8ZM171.724 122.052C169.684 123.332 169.911 125.359 171.4 124.492C172.889 123.625 172.345 121.661 171.724 122.052ZM184.521 102.852C182.423 104.55 184.607 106.602 185.729 103.984C185.795 103.832 184.643 102.752 184.521 102.852ZM228.969 56.8854C228.966 56.8492 227.86 56.031 227.817 56.0344C226.835 56.1528 229.047 57.7885 228.969 56.8854ZM197.166 83.7607C196.369 84.1901 195.395 86.364 196.386 85.8307C197.183 85.4011 198.159 83.2255 197.166 83.7607ZM222.246 322.978C222.25 323.019 223.038 323.613 223.124 323.457C223.398 322.955 222.186 322.292 222.246 322.978ZM219.648 52.0156C216.231 56.6382 212.215 58.0611 216.062 53.1168C216.759 52.2214 215.286 55.5616 216.301 54.513C218.157 52.5933 217.916 50.2728 220.147 48.5534C220.553 48.2431 219.847 51.7551 219.645 52.0259C219.646 52.0225 219.647 52.0191 219.648 52.0156ZM150.502 272.418C150.514 272.46 151.612 273.271 151.655 273.268C152.642 273.154 150.43 271.518 150.502 272.418ZM268.437 357.339C268.465 357.43 271.017 359.309 271.133 359.325C273.11 359.395 267.952 355.594 268.437 357.339ZM102.223 213.585C102.54 211.983 103.507 210.484 104.879 210.001C103.986 211.183 103.118 212.395 102.223 213.585Z" fill="#0A0A0A"></path>
</svg></svg></g></g></svg></g><g id="dark-icon"><svg xmlns="http://www.w3.org/2000/svg" version="1.1" xmlns:xlink="http://www.w3.org/1999/xlink" width="1000" height="1000"><g><g transform="matrix(1.953125,0,0,1.953125,0,0)"><svg xmlns="http://www.w3.org/2000/svg" version="1.1" xmlns:xlink="http://www.w3.org/1999/xlink" width="512" height="512"><svg width="512" height="512" viewBox="0 0 512 512" fill="none" xmlns="http://www.w3.org/2000/svg">
<path d="M234.101 49.8971C239.636 53.6006 246.64 58.8094 251.894 62.8654C253.541 64.1358 252.468 63.8294 253.595 64.72C255.8 66.4615 258.038 67.8259 260.2 69.5708C260.916 70.1505 259.642 69.9679 260.401 70.5648C264.557 73.8324 268.718 76.6011 273.009 79.7985C294.142 95.5487 315.138 110.717 336.736 126.369C343.858 131.53 352.268 138.151 359.811 143.217C360.692 143.808 360.475 143.022 360.664 143.104C363.622 144.404 362.161 144.644 363.766 145.953C370.138 151.144 377.547 156.459 384.099 160.863C386.887 162.736 384.734 159.952 387.158 162.377C387.327 162.545 386.316 162.499 387.033 163.079C388.66 164.395 391.947 166.607 393.242 167.579C395.736 169.454 396.16 169.748 398.562 171.461C401.843 173.805 405.597 176.803 409.198 179.205C409.968 179.717 409.295 178.551 410.552 179.325C411.809 180.101 414.963 182.396 415.958 183.265C416.954 184.134 416.242 184.17 416.373 184.387C417.441 186.192 421.805 187.838 422.295 188.15C431.214 193.867 438.226 199.668 446.329 205.416C452.431 209.741 459.077 214.189 464.878 218.337L467.395 220.078L465.612 222.655C465.578 222.703 465.543 222.751 465.509 222.799C460.53 229.749 456.089 235.482 451.326 242.286C450.823 243.004 451.956 242.548 451.342 243.425C444.823 252.746 438.229 261.916 431.312 270.894C430.618 271.794 430.992 270.265 430.27 271.144C425.861 276.535 418.567 284.837 418.238 289.663C415.435 293.444 412.046 298.044 409.195 301.184C407.357 303.208 408.367 300.692 406.657 303.568C406.271 304.216 407.288 303.738 406.675 304.686C404.092 308.676 400.944 312.802 398.459 316.799C397.954 317.612 398.51 317.686 398.426 317.959C397.699 320.233 394.532 322.63 393.984 323.254C389.818 328.007 387.368 331.899 383.966 336.667C383.176 337.773 384.649 336.848 383.909 337.926C380.061 343.514 375.948 349.211 371.864 354.458C370.954 355.624 371.278 354.187 370.819 354.728C368.804 357.115 369.278 358.297 367.361 360.598C366.958 361.084 366.768 360.514 366.658 360.577C364.935 361.558 364.999 363.518 364.753 363.91C361.662 368.885 358.489 371.216 355.364 375.924C354.991 376.488 356.374 375.601 355.295 377.164C348.111 387.582 340.229 398.399 332.581 408.33C331.392 409.875 331.821 408.474 331.703 408.541C329.823 409.656 330.046 411.399 329.715 411.943C327.08 416.215 323.557 419.453 322.745 423.05C312.572 436.705 303.112 450.789 292.945 464.308L291.758 466.023L290.002 464.808C286.673 462.304 283.379 459.757 280.133 457.147C279.924 456.98 280.654 456.779 280.234 456.449C275.184 452.461 275.663 453.919 271.55 452.367C270.514 451.976 268.636 448.993 268.457 448.745C267.811 447.841 269.205 447.76 268.958 447.499C266.905 445.364 265.622 447.991 262.419 445.72C262.321 445.645 263.049 445.51 262.811 445.277C262.072 444.549 261.122 444.134 260.411 443.405C258.786 441.733 258.931 440.117 255.602 438.756C255.179 438.586 254.784 440.312 251.97 438.221C250.849 437.386 245.787 433.829 244.435 432.739C243.084 431.651 244.359 431.908 244.271 431.818C240.869 428.549 242.48 429.338 241.171 427.143C239.86 424.951 238.968 427.327 238.033 426.999C237.096 426.67 234.639 424.221 234.069 423.571C233.5 422.922 234.549 423.255 234.005 422.73C230.393 419.26 231.527 422.465 229.97 421.838C226.298 420.363 224.906 417.145 222.136 414.961C221.387 414.37 221.781 415.158 221.066 414.698C218.239 412.873 216.918 411.24 213.498 409.452C212.938 409.159 209.783 408.262 208.616 406.449C208.452 406.19 209.371 406.287 208.261 405.375C206.604 404.012 203.516 401.699 201.551 400.491C200.101 399.6 201.257 401.336 199.647 399.909C198.932 399.275 200.621 399.938 199.257 398.776C197.9 397.619 194.186 395.007 192.768 394.02C191.353 393.034 191.795 394.043 191.659 393.993C190.845 393.684 187.987 391.991 187.749 391.821C175.677 383.341 165.134 374.689 153.236 366.635C152.303 366.002 152.569 366.924 152.423 366.833C149.131 364.804 152.532 365.269 150.641 363.275C150.257 364.489 149.086 363.39 146.793 361.925C145.687 361.22 145.997 362.016 145.871 361.986C143.874 361.444 143.304 359.909 143.129 359.554C142.481 358.244 140.865 358.102 140.419 357.218C139.972 356.336 142.009 356.945 139.877 355.444C139.03 355.375 139.952 357.42 138.231 356.425C131.738 352.671 120.884 343.878 116.04 340.328C111.206 336.785 109.581 335.73 106.824 333.581C101.844 329.7 103.242 331.724 99.8247 329.772C96.3982 327.813 99.154 327.229 98.9512 326.539C98.7567 325.855 97.9979 325.879 97.5772 325.28C97.1582 324.683 98.5468 325.297 97.2818 324.287C96.0159 323.276 91.9517 321.363 91.2148 321.411C89.6557 321.514 90.6817 323.512 87.4022 320.739C87.214 320.579 88.1805 320.597 87.4438 320.007C81.582 315.333 75.2553 310.813 69.3729 306.184C68.5647 305.547 69.6648 305.585 69.1983 305.209C64.3408 301.287 65.5662 303.409 62.1244 302.358C63.6236 301.57 62.618 299.724 58.7664 296.98C56.4514 295.331 56.4689 296.152 54.7004 295.467C54.1694 295.262 52.7909 293.729 52.3142 293.771C50.7478 293.902 51.6349 295.923 47.9254 292.738L46.4163 291.694L47.4854 290.149C47.4867 290.147 47.488 290.146 47.4893 290.144C47.5391 290.087 47.5787 290.159 47.6289 290.251L46.6611 291.65L48.0272 292.595C48.1477 292.529 48.302 292.444 48.2412 292.293L47.1757 291.556L47.9306 290.465C47.9904 290.441 48.0606 290.383 48.1443 290.276C51.0884 286.506 50.5543 285.426 53.438 281.14C55.6983 277.78 60.3919 272.283 63.1449 268.584C64.4735 269.646 66.6757 265.87 66.743 263.753C68.5131 261.341 70.3287 258.667 72.1337 256.403C72.7545 255.623 72.7771 256.441 72.8931 256.369C74.686 255.282 74.5097 253.562 74.8469 253.01C78.5424 247.052 82.5457 242.901 85.7223 236.966C85.8347 236.755 85.0951 235.759 86.8305 234.802C86.9458 234.742 86.107 236.851 87.9588 234.313C89.811 231.774 93.7543 227.309 95.8329 223.435C96.3364 222.498 97.1007 219.767 98.9508 218.452C99.1989 218.278 99.294 218.728 99.686 218.501C100.946 217.761 100.395 216.478 102.127 215.787C103.859 215.096 106.362 212.879 108.338 208.886C108.403 208.76 108.235 207.364 109.047 206.245C110.345 204.458 112.32 202.015 113.65 200.13C114.286 199.228 113.398 199.465 113.501 199.302C117.528 193.057 121.012 189.051 125.8 182.696C126.678 181.531 128.45 177.651 130.599 175.716C132.957 173.589 133.464 177.853 137.026 171.646C138.465 169.144 137.589 164.063 142.121 160.947C147.533 152.509 153.683 145.516 158.947 136.939C159.184 136.554 159.179 134.799 159.804 133.941C160.735 132.669 161.624 132.239 162.301 131.339C165.147 127.576 167.311 123.821 169.994 120.15C171.012 118.755 171.064 119.533 172.278 117.87C173.491 116.207 173.756 114.713 175.625 112.62C177.038 111.041 179.338 110.091 181.082 107.901C180.076 107.057 181.209 105.507 182.902 102.525C183.227 101.951 182.448 102.261 182.583 101.976C183.122 100.81 184.106 100.076 184.591 98.9502C184.71 98.6768 184.354 98.407 184.43 98.1689C185.066 96.1346 187.819 93.9921 188.294 93.6255C190.108 92.217 190.229 91.0427 191.418 89.8188C192.606 88.5971 191.416 90.8395 192.683 89.3274C195.31 86.1927 198.283 81.8789 200.695 78.514C201.656 77.1698 200.517 77.7439 200.643 77.5435C202.496 74.67 205.013 72.2198 205.14 69.9875C209.016 69.8335 206.089 68.135 209.416 64.5085C209.679 64.2236 211.147 64.6652 210.466 65.993C209.786 67.3206 208.12 68.884 207.205 70.7473C206.988 71.1881 206.49 74.2426 206.338 74.5995C205.145 77.395 203.131 76.482 202.943 76.5412C200.862 77.25 200.093 80.8686 199.658 81.6566C197.669 85.2622 195.408 87.9205 193.698 90.9033C192.578 92.8527 193.611 93.8541 192.559 95.2623C189.06 99.9439 186.262 100.459 184.48 105.945C184.096 107.12 186.042 107.062 182.598 109.805C182.381 109.977 179.652 111.891 179.179 113.78C179.12 114.018 179.493 114.274 179.35 114.541C178.386 116.326 177.314 117.213 176.185 119.102C175.057 120.992 173.74 123.292 172.165 125.247C171.217 126.425 169.408 127.516 168.821 127.986C167.155 129.306 166.685 131.655 165.365 132.269C164.037 132.889 164.582 130.22 162.266 132.675C163.154 133.457 163.974 134.388 164.824 135.236C160.551 141.186 156.07 146.845 151.859 152.87C151.338 153.617 152.393 153.223 151.848 154.034C149.545 157.454 147.094 160.129 144.767 163.719C142.968 166.499 141.415 169.845 139.55 172.765C137.229 173.709 134.631 178.16 132.373 181.131C131.582 182.171 131.34 181.892 130.706 182.582C128.324 185.189 130.245 184.538 129.842 185.43C128.108 189.255 125.707 187.984 122.949 191.987C122.802 192.198 122.152 195.596 121.974 196.001C120.856 198.585 121.303 196.084 120.218 197.428C118.239 199.883 116.694 201.469 114.9 204.724C114.378 205.674 113.614 208.299 111.839 209.603C111.606 209.775 111.307 209.377 111.156 209.541C108.459 212.542 109.614 213.491 108.701 215.651C107.787 217.811 104.9 220.101 104.242 220.516C102.526 221.608 104.809 219.149 104.807 219.023C104.769 217.527 103.402 219.72 102.199 221.284C100.842 220.671 99.3179 222.971 100.957 222.909C101.139 222.899 101.916 221.569 102.199 221.284C102.368 223.526 100.764 226.104 97.7344 228.057C96.3154 228.971 96.575 227.34 94.0397 231.376C92.8886 233.207 94.1926 233.109 93.3135 234.823C91.3045 238.736 87.2643 242.808 84.7873 246.555C83.8883 247.915 85.2562 246.939 84.6573 247.879C83.0693 250.376 81.224 252.262 79.6794 254.805C79.54 255.036 80.3907 254.834 79.8626 255.591C75.8687 261.336 72.0421 266.09 67.8067 272.042C65.7605 274.918 62.3685 280.248 60.2006 283.193C57.7829 286.481 54.7679 290.087 52.1353 293.448L51.2245 288.088C53.0832 289.544 54.867 290.883 56.481 291.939C59.4361 293.876 59.1382 292.957 60.5996 293.512C63.4215 294.58 66.8461 298.683 67.2913 299.258C67.3046 299.276 64.748 297.629 65.8988 298.809C66.3104 299.858 67.2618 299.241 67.2913 299.258C67.585 299.634 72.4591 303.253 73.5058 303.86C74.0747 304.19 74.0923 303.532 74.3829 303.713C81.285 308.01 87.9957 312.601 94.5609 317.572C94.6726 317.665 94.1408 318.038 94.4081 318.25C98.1372 321.229 101.058 322.385 104.521 324.297C107.982 326.208 110.438 328.133 111.728 330.335C114.222 331.943 117.423 334.783 119.256 336.429C121.09 338.075 122.057 337.302 122.246 337.407C128.161 340.68 130.933 343.483 136.556 347.602C139.228 349.563 144.688 353.225 147.689 355.195C150.062 356.75 151.294 357.966 153.528 359.332C153.83 359.517 153.845 358.878 153.945 358.924C156.69 360.094 154.797 360.34 155.154 360.877C156.447 362.826 157.288 363.972 160.562 365.81C161.317 366.234 164.442 366.164 165.786 366.984C167.531 368.052 166.515 368.151 168.352 369.256C168.509 369.351 168.717 368.993 169.782 369.771C174.73 373.378 180.035 377.437 185.248 381.085C185.959 381.584 185.429 380.406 186.463 381.119C191.313 384.465 196.567 388.222 201.071 391.794C202.179 392.675 201.191 392.536 201.362 392.824C202.422 394.585 205.292 395.155 205.664 395.392C214.569 401.005 220.503 406.542 229.538 412.321C230.031 412.634 234.434 414.185 235.431 416.241C235.5 416.38 236.465 418.444 238.339 418.83C238.455 418.854 237.784 417.667 239.507 418.962C241.23 420.257 244.281 421.948 246.328 424.181C246.977 424.887 248.135 427.084 250.934 427.973C251.118 428.028 255.81 428.876 256.259 430.906C256.33 431.238 255.262 432.291 258.423 433.605C259.028 433.855 258.274 432.916 259.764 433.721C262.047 434.952 264.6 437.248 267.561 438.543C268.079 438.767 270.575 439.309 271.672 441.02C271.843 441.288 271.101 441.366 271.88 441.987C275.587 444.941 279.819 447.539 283.541 450.598C284.859 451.681 283.689 451.827 285.012 453.028C286.335 454.229 289.132 456.465 290.857 457.242C292.582 458.02 291.663 455.81 293.991 457.337C294.289 457.533 294.587 457.729 294.884 457.927L286.064 459.425C292.557 449.649 299.862 440.572 306.73 431.075C307.78 429.623 306.55 430.571 308.07 428.414C313.674 420.457 323.048 406.508 328.722 400.18C333.268 395.11 328.822 402.395 332.07 398.36C333.636 396.413 333.994 393.357 334.304 392.839C337.324 387.767 340.223 384.811 343.124 380.376C343.723 379.46 342.614 379.988 343.129 379.212C344.884 376.56 347.035 373.989 348.753 371.484C349.523 370.359 349.005 370.299 349.759 369.297C351.56 366.895 353.252 364.843 355.294 362.705C355.48 362.51 354.904 364.305 356.205 362.507C358.311 359.596 361.236 356.203 363.272 352.579C363.875 351.503 363.051 350.859 365.165 349.127C365.608 348.763 366.223 350.064 367.116 346.932C367.268 346.407 369.06 341.353 371.294 339.834C371.883 339.433 373.707 338.636 374.429 337.34C374.523 337.162 373.602 337.491 374.265 336.462C376.608 332.844 379.269 329.197 381.686 325.486C382.331 324.494 380.838 325.594 381.814 324.127C384.497 320.092 388.117 315.246 391.006 311.488C392.071 310.104 391.765 311.366 391.882 311.293C393.758 310.12 393.52 308.469 393.858 307.878C395.971 304.206 398.269 301.899 400.402 298.646C400.992 297.749 400.105 298.052 400.189 297.85C401.081 295.767 400.929 297.682 401.829 296.602C404.352 293.577 406.849 289.981 409.09 286.701C409.913 285.496 408.446 286.465 409.19 285.388C413.585 279.005 418.296 272.471 422.957 266.506C423.836 265.383 423.717 266.397 423.979 266.22C425.801 265.004 426.665 261.942 426.982 261.321C428.418 258.495 429.476 257.751 431.013 255.446C438.514 244.179 448.415 230.72 455.95 220.406C456.701 219.378 457.44 218.368 458.17 217.374L459.598 225.779C447.602 216.974 437.93 209.635 425.912 201.245C425.085 200.667 425.538 201.786 424.82 201.295C415.574 194.927 406.707 188.324 397.425 181.968C396.664 181.446 397.392 182.719 396.158 181.897C393.625 180.215 390.505 177.96 388.113 176.022C386.946 175.077 388.892 175.808 387.71 174.866C384.961 172.672 381.915 170.457 378.916 168.45C377.638 167.597 379.162 169.452 377.531 168.303C366.407 160.488 355.456 152.851 344.725 144.235C343.989 143.644 344.058 142.12 342.282 141.162C341.953 141.365 341.718 141.711 341.444 141.983C325.185 130.699 309.468 119.002 293.322 107.462C292.641 106.976 293.427 108.367 292.107 107.428C284.467 101.994 276.932 96.8795 269.502 90.779C268.764 90.1745 269.854 89.4818 267.463 88.0067C267.04 87.7474 263.503 85.4335 262.463 85.0134C262.319 84.9595 262.624 85.8605 261.505 85.0863C255.006 80.579 248.321 75.6792 242.079 70.8326C241.072 70.0495 242.523 70.35 241.809 69.7881C236.741 65.8056 230.769 62.1221 226.064 58.1224C222.916 55.4434 224.754 55.4877 223.555 53.3968C223.385 53.1014 221.319 51.6075 221.551 51.0513C222.132 49.6488 224.076 49.0422 224.576 47.4628C224.685 47.1238 221.688 45.4462 223.812 45.9466C223.959 45.9836 226.136 47.194 226.794 47.3197C227.252 47.4083 226.974 46.4776 227.823 46.7779C228.672 47.0782 229.158 48.0381 230.497 48.6329C231.837 49.2244 231.716 48.304 234.101 49.8971ZM127.517 343.833C129.034 345.611 130.519 344.097 128.23 343.087C128.117 343.04 127.438 343.743 127.517 343.833ZM154.806 145.897C152.338 147.78 152.272 150.219 154.063 148.927C155.854 147.635 155.556 145.323 154.806 145.897ZM172.036 120.448C169.438 122.851 171.544 125.014 173.201 121.641C173.298 121.446 172.188 120.308 172.036 120.448ZM231.997 59.0335C231.987 58.9928 230.508 57.9101 230.457 57.9072C229.276 57.8848 232.234 60.0493 231.997 59.0335ZM189.081 95.1564C188.128 95.8057 186.705 98.6126 187.889 97.8061C188.843 97.1567 190.267 94.3474 189.081 95.1564ZM222.65 414.072C222.661 414.118 223.716 414.901 223.797 414.742C224.053 414.227 222.469 413.3 222.65 414.072ZM219.04 52.8723C214.519 59.0521 209.832 61.4189 214.883 54.779C215.797 53.5766 213.638 57.8856 214.93 56.4461C217.293 53.8113 217.389 51.016 220.138 48.5668C220.637 48.1244 219.303 52.523 219.035 52.8854C219.037 52.8811 219.039 52.8767 219.04 52.8723ZM127.126 346.64C127.147 346.688 128.615 347.762 128.667 347.765C129.855 347.793 126.897 345.629 127.126 346.64ZM284.434 459.496C284.482 459.603 287.893 462.09 288.036 462.126C290.461 462.514 283.568 457.481 284.434 459.496ZM63.2238 268.552C63.827 266.546 65.1367 264.564 66.737 263.759C65.5593 265.342 64.405 266.958 63.2238 268.552Z" fill="white"></path>
<path d="M229.128 46.369C231.738 47.9969 234.907 50.4849 237.247 52.4731C237.981 53.0955 237.37 53.1172 237.867 53.5605C238.839 54.4271 239.928 54.9764 240.871 55.8566C241.183 56.1498 240.412 56.3239 240.747 56.6203C242.583 58.2415 244.549 59.4526 246.489 60.9822C256.043 68.517 265.658 75.6093 275.535 82.9459C278.792 85.3645 282.505 88.6527 286.056 90.8867C286.471 91.147 286.532 90.5576 286.632 90.5767C288.199 90.8903 287.201 91.459 287.898 92.1232C290.666 94.7573 294.069 97.2296 297.152 99.1734C298.465 99.9991 297.792 98.2649 298.731 99.6362C298.796 99.7306 298.159 99.95 298.471 100.243C299.181 100.908 300.728 101.885 301.311 102.353C302.434 103.255 302.632 103.389 303.738 104.181C305.247 105.268 306.893 106.77 308.593 107.824C308.956 108.047 308.821 107.263 309.431 107.578C310.04 107.894 311.48 108.973 311.898 109.432C312.316 109.891 311.85 110.102 311.879 110.246C312.105 111.454 314.486 111.693 314.721 111.824C318.99 114.242 322.014 117.214 325.752 119.863C328.567 121.857 331.7 123.812 334.367 125.737L336.872 127.419L335.101 130.055C335.085 130.077 335.069 130.099 335.053 130.121C332.74 133.314 330.558 135.864 328.385 139.018C328.155 139.35 328.967 139.346 328.688 139.753C325.715 144.076 322.642 148.282 319.256 152.284C318.916 152.685 318.834 151.799 318.466 152.18C316.223 154.517 312.356 157.989 313.313 161.002C311.977 162.715 310.369 164.805 308.831 166.094C307.839 166.926 308.028 165.569 307.358 166.979C307.206 167.296 307.918 167.249 307.656 167.701C306.554 169.604 305.023 171.451 304.003 173.383C303.796 173.777 304.27 173.966 304.271 174.119C304.253 175.393 302.268 176.126 301.976 176.387C299.77 178.377 298.753 180.252 297.177 182.446C296.811 182.955 297.783 182.735 297.45 183.239C295.717 185.846 293.795 188.456 291.782 190.783C291.333 191.3 291.233 190.461 290.994 190.691C289.949 191.71 290.639 192.589 289.653 193.578C289.446 193.787 289.145 193.373 289.071 193.386C287.909 193.577 288.459 194.851 288.357 195.04C287.089 197.446 285.082 198.135 283.717 200.361C283.555 200.628 284.463 200.41 283.976 201.139C280.738 205.997 277.028 210.933 273.285 215.36C272.704 216.048 272.698 215.259 272.619 215.272C271.361 215.509 271.988 216.684 271.855 216.949C270.781 219.02 268.718 220.202 268.966 222.303C264.101 228.478 259.929 235.109 255.034 241.197L253.888 242.904L252.091 241.697C250.592 240.492 249.126 239.242 247.707 237.928C247.615 237.845 248.135 237.494 247.95 237.33C245.723 235.346 245.66 236.419 243.415 236.193C242.85 236.136 242.404 234.168 242.352 234.011C242.167 233.434 243.082 233.013 242.991 232.862C242.216 231.634 240.724 234.114 239.247 233.067C239.204 233.031 239.705 232.735 239.612 232.604C239.322 232.196 238.818 232.097 238.547 231.68C237.93 230.723 238.434 229.362 236.644 229.093C236.416 229.061 235.724 230.576 234.45 229.578C233.943 229.178 231.6 227.55 231.009 227.001C230.419 226.453 231.171 226.34 231.138 226.288C229.787 224.474 230.619 224.71 230.338 223.244C230.054 221.782 228.878 223.956 228.361 223.925C227.844 223.893 226.89 222.51 226.69 222.123C226.489 221.735 227.078 221.742 226.862 221.45C225.427 219.524 225.339 221.863 224.5 221.745C222.519 221.47 222.445 219.186 221.223 218.1C220.892 217.807 220.945 218.352 220.603 218.157C219.253 217.381 218.821 216.378 217.081 215.782C216.796 215.684 215 215.751 214.712 214.562C214.672 214.392 215.238 214.237 214.758 213.772C214.041 213.077 212.647 211.966 211.694 211.476C210.99 211.114 211.29 212.243 210.621 211.483C210.323 211.145 211.238 211.259 210.659 210.653C210.082 210.05 208.363 208.854 207.705 208.405C207.047 207.958 207.074 208.672 207 208.666C206.556 208.619 205.153 207.959 205.043 207.88C199.454 203.999 194.889 199.589 189.303 196.014C188.866 195.732 188.802 196.42 188.732 196.382C187.135 195.557 189.199 195.073 188.493 193.919C187.938 195.013 187.466 194.409 186.367 193.792C185.837 193.495 185.833 194.069 185.76 194.076C184.617 194.139 184.641 193.027 184.619 192.78C184.537 191.871 183.536 192.166 183.475 191.554C183.412 190.946 184.564 190.927 183.578 190.238C183.052 190.397 183.123 191.839 182.272 191.461C179.061 190.035 174.333 185.589 172.127 183.911C169.927 182.236 169.152 181.785 167.93 180.725C165.721 178.81 166.104 180.114 164.408 179.383C162.707 178.648 164.624 177.469 164.669 176.955C164.718 176.444 164.225 176.656 164.108 176.273C163.991 175.89 164.726 176.04 164.171 175.534C163.615 175.027 161.494 174.493 161.009 174.72C159.983 175.201 160.133 176.577 158.734 175.138C158.654 175.055 159.27 174.824 158.947 174.527C156.374 172.188 153.464 170.092 150.867 167.794C150.51 167.477 151.207 167.229 151.003 167.039C148.884 165.06 149.13 166.487 147.189 166.502C148.351 165.475 148.176 164.217 146.402 162.948C145.336 162.184 145.139 162.853 144.178 162.741C143.89 162.708 143.395 161.802 143.079 161.958C142.04 162.464 142.096 163.894 140.525 162.228L139.023 161.219L140.085 159.638C140.086 159.638 140.087 159.637 140.087 159.636C140.114 159.612 140.164 159.669 140.229 159.74L139.268 161.171L140.627 162.084C140.721 161.999 140.842 161.891 140.841 161.782L139.781 161.07L140.53 159.954C140.573 159.954 140.616 159.935 140.657 159.887C142.112 158.217 141.399 157.389 142.673 155.372C143.671 153.791 146.12 151.457 147.436 149.784C148.795 150.803 149.64 148.94 149.156 147.599C149.994 146.501 150.802 145.248 151.705 144.254C152.016 143.912 152.242 144.442 152.319 144.425C153.512 144.184 152.931 143.036 153.066 142.767C154.58 139.884 156.806 138.238 157.9 135.238C157.939 135.132 157.079 134.305 158.258 134.131C158.337 134.122 158.186 135.262 159.058 134.105C159.931 132.947 162.027 131.085 162.746 129.128C162.92 128.654 162.852 127.096 164.034 126.723C164.193 126.674 164.386 126.988 164.649 126.941C165.494 126.787 164.716 125.824 165.959 125.821C167.203 125.818 168.691 125.032 169.295 122.973C169.316 122.908 168.824 121.97 169.205 121.458C169.814 120.642 170.812 119.576 171.422 118.705C171.714 118.288 171.047 118.214 171.089 118.136C172.803 115.153 174.639 113.469 176.947 110.609C177.371 110.085 177.837 108.046 179.106 107.35C180.497 106.585 181.997 109.45 183.338 106.373C183.881 105.134 181.872 101.651 184.794 100.805C187.083 96.7665 190.345 93.8438 192.479 89.6791C192.575 89.4921 192.124 88.3648 192.419 87.9735C192.858 87.3937 193.478 87.3442 193.804 86.939C195.179 85.2484 195.998 83.3893 197.263 81.7158C197.743 81.0799 197.984 81.5921 198.556 80.8337C199.127 80.0754 198.964 79.1838 199.964 78.3164C200.72 77.6626 202.364 77.6383 203.236 76.6765C202.197 75.8792 202.732 75.1727 203.361 73.6895C203.481 73.404 202.922 73.405 202.96 73.2564C203.105 72.6456 203.725 72.4245 203.836 71.8257C203.864 71.6805 203.503 71.4167 203.506 71.2834C203.51 70.14 205.221 69.4653 205.517 69.3508C206.646 68.9084 206.446 68.1856 207.11 67.7028C207.772 67.2209 207.367 68.3572 208.022 67.7093C209.378 66.366 210.717 64.354 211.838 62.8085C212.284 62.1903 211.496 62.269 211.549 62.1725C212.337 60.8001 213.777 59.8679 213.313 58.4679C216.451 59.3548 213.62 57.5206 215.424 56.0399C215.568 55.924 216.883 56.5806 216.663 57.2595C216.443 57.9382 215.475 58.5176 215.199 59.4806C215.133 59.7083 215.502 61.5414 215.468 61.7318C215.201 63.222 213.318 62.124 213.179 62.1142C211.654 62.0398 211.943 64.166 211.787 64.561C211.074 66.3687 209.897 67.4995 209.254 68.9785C208.832 69.9443 209.933 70.8496 209.429 71.4855C207.752 73.5997 205.59 73.2189 205.523 76.285C205.508 76.9413 207.088 77.3995 204.963 78.2833C204.829 78.3387 203.079 78.873 203.171 79.9647C203.183 80.102 203.555 80.3614 203.506 80.4964C203.169 81.3964 202.516 81.6929 202.071 82.6182C201.627 83.5434 201.133 84.6849 200.339 85.5382C199.861 86.0528 198.656 86.293 198.295 86.4453C197.265 86.8684 197.477 88.2561 196.551 88.3145C195.62 88.3748 195.388 86.8008 194.114 87.7873C195.041 88.5149 195.95 89.3209 196.863 90.0806C194.874 92.8122 192.64 95.3032 190.72 98.0981C190.483 98.4453 191.248 98.4608 191.007 98.8424C189.989 100.451 188.661 101.544 187.667 103.256C186.899 104.582 186.477 106.334 185.691 107.733C184.029 107.749 183.032 109.944 181.936 111.276C181.553 111.743 181.283 111.502 180.939 111.783C179.65 112.85 181.059 112.921 180.955 113.391C180.507 115.404 178.216 113.978 176.973 115.845C176.906 115.943 177.237 117.958 177.195 118.173C176.935 119.546 176.665 118.055 176.119 118.642C175.121 119.714 174.257 120.338 173.615 121.97C173.429 122.448 173.47 123.937 172.347 124.323C172.2 124.374 171.853 124.042 171.771 124.109C170.324 125.349 171.512 126.251 171.313 127.405C171.113 128.559 169.329 129.294 168.895 129.393C167.767 129.657 169.013 128.66 168.979 128.578C168.568 127.609 168.005 128.669 167.417 129.367C166.148 128.628 165.484 129.716 166.812 130.093C166.958 130.133 167.257 129.477 167.417 129.367C168.125 130.848 167.466 132.094 165.48 132.577C164.549 132.802 164.347 131.821 163.295 133.767C162.818 134.649 163.861 134.918 163.577 135.793C162.925 137.794 160.649 139.379 159.572 141.153C159.181 141.797 160.054 141.519 159.802 141.97C159.136 143.168 158.103 143.909 157.484 145.148C157.428 145.26 158.074 145.347 157.833 145.698C156.021 148.369 154.094 150.446 152.136 153.188C151.19 154.513 149.766 157.07 148.738 158.409C147.592 159.904 146.038 161.45 144.735 162.938L143.824 157.578C144.647 158.298 145.451 158.942 146.218 159.397C147.621 160.233 147.664 159.556 148.46 159.639C149.999 159.796 151.153 162.289 151.293 162.647C151.297 162.658 150.075 161.958 150.514 162.633C150.511 163.387 151.278 162.64 151.293 162.647C151.386 162.88 153.593 164.607 154.11 164.838C154.391 164.964 154.57 164.42 154.71 164.494C158.046 166.261 161.184 168.318 164.132 170.723C164.18 170.77 163.744 171.211 163.862 171.317C165.497 172.81 167.078 173.014 168.813 173.701C170.548 174.388 171.634 175.341 171.901 176.818C173.093 177.501 174.425 179.015 175.182 179.898C175.94 180.781 176.757 179.901 176.852 179.939C179.815 181.118 180.881 182.71 183.441 184.656C184.657 185.583 187.229 187.196 188.654 188.048C189.781 188.719 190.262 189.402 191.348 189.954C191.494 190.029 191.667 189.501 191.719 189.513C193.183 189.774 191.906 190.457 191.998 190.807C192.332 192.075 192.58 192.801 194.214 193.474C194.59 193.63 196.613 192.778 197.267 193.108C198.115 193.54 197.438 193.88 198.336 194.318C198.412 194.356 198.637 194.009 199.122 194.376C201.379 196.075 203.751 198.052 206.168 199.716C206.498 199.945 206.457 199.114 206.939 199.435C209.2 200.945 211.616 202.688 213.598 204.47C214.084 204.91 213.486 205.047 213.523 205.24C213.755 206.414 215.451 206.151 215.63 206.25C219.916 208.587 222.315 211.616 226.643 214.055C226.88 214.186 229.31 214.338 229.427 215.769C229.436 215.865 229.53 217.312 230.634 217.152C230.703 217.142 230.574 216.34 231.35 216.963C232.127 217.586 233.655 218.196 234.4 219.505C234.637 219.919 234.821 221.426 236.391 221.442C236.495 221.44 239.29 220.943 239.062 222.492C239.023 222.746 238.07 223.881 239.764 224.154C240.089 224.205 239.844 223.627 240.595 223.908C241.746 224.336 242.801 225.569 244.372 225.877C244.647 225.929 246.11 225.739 246.379 226.862C246.421 227.038 245.925 227.291 246.267 227.601C247.894 229.08 249.949 230.134 251.559 231.694C252.13 232.246 251.341 232.664 251.885 233.312C252.429 233.959 253.654 235.081 254.563 235.279C255.473 235.478 255.445 233.9 256.55 234.56C256.692 234.644 256.833 234.73 256.973 234.816L248.153 236.315C250.989 231.693 254.667 227.727 257.881 223.379C258.373 222.715 257.606 223.011 258.303 222.013C260.873 218.333 265.009 211.767 268.05 209.149C270.487 207.052 268.695 210.596 270.331 208.833C271.12 207.982 270.636 206.112 270.758 205.858C271.943 203.372 273.568 202.213 274.818 200.105C275.076 199.669 274.301 199.726 274.526 199.359C275.29 198.104 276.399 197.002 277.17 195.831C277.515 195.305 277.075 195.134 277.438 194.683C278.304 193.6 279.169 192.714 280.299 191.861C280.402 191.784 280.386 192.789 280.995 191.966C281.981 190.634 283.516 189.201 284.263 187.393C284.483 186.856 283.644 186.233 284.936 185.659C285.206 185.538 286.041 186.53 285.977 184.747C285.968 184.449 286.152 181.662 287.596 181.255C287.977 181.148 289.269 181.101 289.531 180.452C289.564 180.362 288.892 180.339 289.174 179.848C290.174 178.121 291.427 176.458 292.465 174.692C292.741 174.22 291.798 174.546 292.224 173.852C293.397 171.946 295.132 169.757 296.544 168.081C297.065 167.463 297.136 168.196 297.212 168.178C298.452 167.903 297.837 166.783 297.963 166.489C298.761 164.671 300.059 163.775 300.98 162.23C301.235 161.805 300.585 161.774 300.602 161.665C300.804 160.556 301.166 161.746 301.629 161.282C302.928 159.982 304.06 158.31 305.063 156.775C305.431 156.211 304.475 156.46 304.811 155.958C306.789 152.98 308.989 149.986 311.293 147.344C311.727 146.847 311.887 147.467 312.058 147.42C313.241 147.104 313.171 145.359 313.273 145.041C313.731 143.593 314.409 143.385 315.083 142.296C318.365 136.974 323.058 130.856 326.61 126.155C326.964 125.686 327.314 125.226 327.659 124.774L329.087 133.179C323.629 129.013 319.29 125.457 313.712 121.637C313.329 121.373 313.335 122.176 312.999 121.956C308.686 119.088 304.676 115.931 300.336 113.082C299.981 112.847 300.124 113.706 299.541 113.346C298.344 112.611 296.915 111.557 295.874 110.576C295.365 110.098 296.428 110.203 295.909 109.731C294.703 108.632 293.312 107.591 291.898 106.709C291.295 106.335 291.801 107.468 291.046 106.941C285.897 103.364 280.812 99.8899 276.118 95.5571C275.796 95.26 276.228 93.9933 275.332 93.6595C275.069 93.9096 274.83 94.2533 274.585 94.5461C267.023 89.4318 259.913 83.8417 252.488 78.4894C252.175 78.2638 252.325 79.204 251.717 78.7702C248.196 76.2598 244.663 73.9836 241.446 70.8732C241.127 70.5654 242.002 69.7205 240.843 69.1197C240.638 69.0146 238.957 68.0175 238.396 67.9378C238.318 67.9301 238.285 68.591 237.763 68.241C234.739 66.1995 231.696 63.8838 228.924 61.4987C228.477 61.1129 229.331 60.9903 229.016 60.7113C226.777 58.7359 223.882 57.2356 221.88 55.1539C220.542 53.7587 221.71 53.3276 221.472 51.9189C221.438 51.72 220.492 51.0211 220.783 50.506C221.512 49.209 222.914 48.2174 223.636 46.7959C223.792 46.4903 222.296 45.8774 223.531 45.7475C223.616 45.7404 224.705 46.1789 225.095 46.1145C225.367 46.0708 225.425 45.3786 225.893 45.4088C226.362 45.4391 226.429 46.1022 227.137 46.2493C227.847 46.3933 228.003 45.6697 229.128 46.369ZM178.6 183.866C179.121 184.937 180.459 183.318 179.247 183.073C179.187 183.063 178.572 183.812 178.6 183.866ZM191.363 94.3739C189.819 94.9541 190.385 96.5025 191.524 96.1289C192.663 95.755 191.832 94.1964 191.363 94.3739ZM199.013 82.4266C197.495 83.3078 199.771 85.2309 200.271 83.4884C200.301 83.3877 199.101 82.3749 199.013 82.4266ZM225.455 54.392C225.459 54.361 224.786 53.8498 224.753 53.8606C224.001 54.1424 225.349 55.1643 225.455 54.392ZM206.551 70.5332C205.935 70.7074 205.483 72.1465 206.249 71.9303C206.865 71.756 207.318 70.3159 206.551 70.5332ZM221.778 217.241C221.774 217.276 222.251 217.65 222.344 217.499C222.639 217.012 221.858 216.655 221.778 217.241ZM220.354 51.0212C218.219 53.8365 214.98 54.1634 217.431 51.1874C217.875 50.6484 217.2 52.864 217.894 52.269C219.161 51.1795 218.528 49.4102 220.158 48.5379C220.455 48.3809 220.48 50.8638 220.353 51.0283C220.353 51.026 220.353 51.0236 220.354 51.0212ZM177.635 186.265C177.636 186.3 178.305 186.806 178.338 186.796C179.093 186.517 177.745 185.495 177.635 186.265ZM249.869 238.76C249.873 238.835 251.429 240.006 251.512 239.999C252.969 239.7 249.826 237.329 249.869 238.76ZM147.492 149.783C147.477 148.65 148.046 147.711 149.153 147.602C148.59 148.318 148.055 149.061 147.492 149.783Z" fill="white"></path>
<path d="M231.799 48.2643C235.98 51.0072 241.21 54.9568 245.115 58.0558C246.34 59.0263 245.48 58.8718 246.316 59.5554C247.95 60.8919 249.656 61.8791 251.255 63.2238C251.783 63.6709 250.743 63.6534 251.305 64.1112C254.387 66.6169 257.532 68.6647 260.735 71.0903C276.509 83.0384 292.238 94.4688 308.412 106.273C313.745 110.164 319.981 115.243 325.677 118.998C326.342 119.436 326.254 118.741 326.402 118.794C328.716 119.638 327.469 120.03 328.654 121.04C333.358 125.048 338.913 129.047 343.859 132.313C345.965 133.701 344.497 131.403 346.234 133.341C346.355 133.474 345.516 133.551 346.046 133.999C347.248 135.013 349.73 136.654 350.696 137.392C352.555 138.817 352.874 139.037 354.677 140.323C357.138 142.086 359.917 144.391 362.637 146.17C363.219 146.548 362.795 145.559 363.752 146.12C364.71 146.683 367.07 148.416 367.799 149.095C368.527 149.774 367.929 149.891 368.013 150.075C368.691 151.603 372.137 152.598 372.509 152.826C379.277 157.016 384.443 161.508 390.526 165.822C395.106 169.068 400.127 172.362 404.477 175.481L406.991 177.206L405.211 179.799C405.185 179.835 405.159 179.871 405.134 179.907C401.389 185.119 397.993 189.378 394.428 194.493C394.051 195.033 395.036 194.786 394.577 195.445C389.699 202.453 384.734 209.326 379.452 216.001C378.921 216.67 379.084 215.439 378.526 216.087C375.12 220.064 369.412 226.132 369.678 230.118C367.554 232.942 364.989 236.381 362.746 238.664C361.3 240.136 361.93 238.156 360.701 240.354C360.423 240.849 361.299 240.57 360.849 241.289C358.951 244.313 356.551 247.384 354.744 250.426C354.378 251.045 354.895 251.172 354.85 251.389C354.451 253.2 351.832 254.828 351.402 255.283C348.143 258.758 346.357 261.716 343.8 265.293C343.206 266.122 344.447 265.524 343.895 266.336C341.026 270.544 337.928 274.813 334.802 278.708C334.105 279.574 334.233 278.414 333.876 278.811C332.309 280.565 332.883 281.607 331.398 283.301C331.086 283.659 330.844 283.161 330.75 283.2C329.287 283.816 329.576 285.458 329.397 285.756C327.149 289.542 324.516 291.114 322.206 294.673C321.93 295.099 323.093 294.522 322.288 295.699C316.93 303.544 310.98 311.639 305.138 319.023C304.231 320.171 304.458 319.053 304.359 319.095C302.766 319.804 303.176 321.284 302.937 321.699C301.024 324.952 298.177 327.239 297.856 330.144C290.139 340.337 283.127 350.972 275.4 361.051L274.224 362.764L272.457 361.551C269.975 359.648 267.526 357.702 265.126 355.691C264.971 355.563 265.604 355.293 265.293 355.04C261.549 351.98 261.777 353.259 258.529 352.321C257.711 352.084 256.495 349.571 256.376 349.365C255.943 348.613 257.115 348.374 256.94 348.164C255.478 346.449 254.099 349.008 251.695 347.304C251.622 347.246 252.245 347.037 252.074 346.851C251.543 346.271 250.8 346.002 250.292 345.418C249.133 344.077 249.445 342.579 246.828 341.723C246.496 341.617 245.963 343.246 243.862 341.66C243.025 341.026 239.221 338.362 238.221 337.523C237.222 336.684 238.255 336.77 238.193 336.698C235.74 334.103 236.991 334.635 236.157 332.778C235.321 330.923 234.298 333.206 233.557 333.016C232.814 332.824 231.053 330.868 230.654 330.34C230.255 329.812 231.091 329.994 230.699 329.577C228.095 326.821 228.663 329.626 227.439 329.234C224.549 328.315 223.767 325.529 221.713 323.853C221.158 323.4 221.394 324.075 220.852 323.738C218.708 322.399 217.799 321.057 215.156 319.821C214.724 319.618 212.198 319.167 211.437 317.643C211.331 317.425 212.086 317.405 211.268 316.7C210.045 315.646 207.742 313.89 206.245 313.014C205.141 312.368 205.9 313.823 204.726 312.705C204.204 312.208 205.535 312.616 204.534 311.712C203.538 310.811 200.747 308.855 199.681 308.117C198.616 307.38 198.866 308.252 198.759 308.223C198.116 308.035 195.931 306.82 195.753 306.693C186.681 300.341 178.905 293.652 169.928 287.671C169.224 287.201 169.338 288.014 169.227 287.948C166.72 286.476 169.502 286.501 168.159 284.897C167.696 286.055 166.849 285.185 165.108 284.112C164.268 283.596 164.433 284.289 164.332 284.277C162.73 284.014 162.435 282.676 162.331 282.371C161.944 281.246 160.613 281.306 160.345 280.548C160.076 279.793 161.703 280.111 160.102 278.986C159.403 279.023 159.932 280.789 158.614 280.079C153.639 277.402 145.62 270.621 141.997 267.937C138.382 265.259 137.151 264.483 135.104 262.839C131.407 259.868 132.335 261.558 129.714 260.171C127.086 258.779 129.454 257.919 129.366 257.311C129.284 256.707 128.648 256.818 128.368 256.319C128.089 255.821 129.175 256.22 128.238 255.443C127.301 254.666 124.136 253.391 123.516 253.522C122.203 253.8 122.824 255.51 120.415 253.354C120.277 253.23 121.081 253.132 120.536 252.678C116.196 249.085 111.451 245.686 107.089 242.137C106.489 241.648 107.403 241.553 107.058 241.263C103.468 238.241 104.24 240.041 101.493 239.483C102.836 238.585 102.214 237.011 99.3246 234.95C97.5877 233.71 97.5056 234.46 96.111 234.041C95.6922 233.916 94.7228 232.673 94.3202 232.767C92.9982 233.072 93.5004 234.819 90.7808 232.337L89.2738 231.303L90.3409 229.748C90.3419 229.747 90.3429 229.746 90.344 229.745C90.3829 229.703 90.4276 229.768 90.4844 229.85L89.5184 231.258L90.8827 232.194C90.9909 232.119 91.1296 232.023 91.0967 231.892L90.0326 231.162L90.786 230.064C90.838 230.051 90.8956 230.011 90.9596 229.931C93.2144 227.134 92.5977 226.17 94.7363 222.934C96.4124 220.397 100.067 216.364 102.155 213.603C103.498 214.645 105.072 211.755 104.884 209.996C106.223 208.193 107.572 206.176 108.96 204.5C109.437 203.923 109.554 204.607 109.652 204.561C111.167 203.865 110.803 202.41 111.047 201.989C113.733 197.454 116.913 194.463 119.126 189.886C119.205 189.723 118.41 188.806 119.887 188.211C119.986 188.175 119.465 189.836 120.864 187.936C122.263 186.037 125.351 182.776 126.8 179.789C127.152 179.067 127.531 176.878 129.072 175.999C129.278 175.883 129.419 176.27 129.751 176.127C130.819 175.658 130.163 174.523 131.669 174.151C133.175 173.778 135.208 172.223 136.549 169.125C136.594 169.028 136.275 167.843 136.888 167.005C137.868 165.667 139.39 163.862 140.387 162.446C140.864 161.769 140.078 161.862 140.153 161.738C143.109 157.003 145.831 154.071 149.471 149.333C150.139 148.466 151.306 145.438 153.048 144.076C154.959 142.579 155.925 146.196 158.459 141.438C159.484 139.52 158.083 135.178 161.87 133.113C165.837 126.711 170.65 121.602 174.466 115.067C174.638 114.773 174.426 113.309 174.899 112.667C175.602 111.715 176.366 111.461 176.881 110.791C179.046 107.987 180.588 105.109 182.614 102.362C183.383 101.319 183.523 101.974 184.439 100.729C185.355 99.4852 185.422 98.2698 186.889 96.7442C187.998 95.5933 189.995 95.072 191.335 93.4503C190.314 92.6279 191.17 91.4683 192.37 89.1796C192.6 88.7393 191.923 88.9063 192.013 88.6844C192.37 87.7756 193.186 87.2787 193.498 86.3969C193.575 86.1828 193.216 85.9158 193.258 85.7262C193.602 84.1042 195.873 82.641 196.265 82.3911C197.762 81.4297 197.734 80.4643 198.68 79.5834C199.625 78.7041 198.798 80.4346 199.782 79.3224C201.821 77.0168 204.037 73.7683 205.852 71.2455C206.574 70.2373 205.598 70.5821 205.69 70.4298C207.051 68.2509 209.069 66.5033 208.922 64.6562C212.457 64.9839 209.574 63.2226 212.197 60.5892C212.404 60.3825 213.802 60.9236 213.334 61.9511C212.867 62.9783 211.524 64.0864 210.905 65.533C210.758 65.8752 210.661 68.3644 210.563 68.6443C209.799 70.8357 207.845 69.8371 207.68 69.8643C205.856 70.2107 205.577 73.1385 205.271 73.7447C203.873 76.5182 202.114 78.4696 200.898 80.7564C200.1 82.2506 201.165 83.2075 200.366 84.2583C197.711 87.7517 195.207 87.8523 194.219 92.218C194.005 93.153 195.782 93.3342 192.948 95.2166C192.77 95.3347 190.494 96.6103 190.283 98.1303C190.256 98.3214 190.629 98.5791 190.529 98.7851C189.855 100.161 188.977 100.774 188.165 102.217C187.353 103.66 186.418 105.425 185.204 106.869C184.474 107.74 182.944 108.438 182.461 108.761C181.09 109.665 180.935 111.57 179.798 111.926C178.654 112.288 178.839 110.125 177.005 111.901C177.911 112.658 178.773 113.531 179.652 114.338C176.436 118.799 172.994 122.991 169.844 127.521C169.455 128.083 170.375 127.879 169.971 128.491C168.263 131.073 166.331 133.016 164.621 135.736C163.299 137.844 162.27 140.452 160.905 142.668C158.888 143.182 157.031 146.59 155.311 148.801C154.709 149.577 154.454 149.315 153.954 149.816C152.078 151.71 153.762 151.394 153.497 152.09C152.359 155.077 150.008 153.734 147.952 156.748C147.842 156.907 147.646 159.665 147.53 159.982C146.809 162.006 146.925 159.972 146.089 160.966C144.564 162.78 143.334 163.921 142.073 166.425C141.707 167.156 141.315 169.256 139.842 170.135C139.649 170.251 139.328 169.884 139.209 170.003C137.09 172.188 138.261 173.116 137.678 174.81C137.095 176.505 134.718 178.075 134.164 178.344C132.719 179.053 134.523 177.271 134.506 177.165C134.295 175.912 133.3 177.581 132.382 178.744C131.066 178.073 129.94 179.812 131.435 179.954C131.601 179.966 132.156 178.948 132.382 178.744C132.801 180.634 131.634 182.595 129.087 183.869C127.894 184.464 127.94 183.133 126.091 186.202C125.252 187.594 126.436 187.666 125.832 188.992C124.451 192.02 121.227 194.94 119.398 197.774C118.734 198.803 119.873 198.15 119.435 198.864C118.273 200.76 116.804 202.116 115.687 204.055C115.587 204.231 116.343 204.163 115.948 204.732C112.963 209.054 110.016 212.57 106.835 217.036C105.298 219.194 102.816 223.241 101.176 225.443C99.3469 227.901 97.008 230.553 94.9907 233.047L94.08 227.688C95.459 228.803 96.7894 229.82 98.0115 230.598C100.248 232.025 100.108 231.218 101.262 231.555C103.49 232.201 105.864 235.559 106.167 236.034C106.176 236.049 104.238 234.84 105.059 235.786C105.279 236.699 106.145 236.021 106.167 236.034C106.368 236.344 110.008 239.087 110.81 239.52C111.245 239.756 111.337 239.151 111.559 239.282C116.81 242.408 121.868 245.826 126.759 249.61C126.841 249.682 126.354 250.086 126.552 250.249C129.312 252.54 131.612 253.255 134.275 254.6C136.938 255.945 138.76 257.42 139.576 259.287C141.468 260.467 143.803 262.693 145.139 263.986C146.475 265.279 147.372 264.456 147.518 264.531C152.066 266.834 154.049 269.077 158.254 272.19C160.253 273.672 164.376 276.386 166.648 277.838C168.444 278.984 169.328 279.954 171.031 280.943C171.261 281.077 171.349 280.49 171.427 280.52C173.579 281.269 171.971 281.717 172.206 282.168C173.055 283.802 173.621 284.753 176.136 286.052C176.716 286.352 179.331 285.92 180.355 286.513C181.685 287.287 180.826 287.498 182.229 288.294C182.348 288.363 182.564 288.01 183.361 288.597C187.063 291.321 191.011 294.417 194.93 297.147C195.464 297.521 195.161 296.503 195.939 297.035C199.591 299.531 203.531 302.356 206.868 305.1C207.689 305.777 206.881 305.765 206.99 306.01C207.667 307.499 209.994 307.683 210.277 307.856C217.044 311.953 221.342 316.33 228.198 320.562C228.573 320.791 232.062 321.695 232.652 323.462C232.694 323.581 233.256 325.359 234.773 325.493C234.868 325.501 234.447 324.492 235.732 325.476C237.017 326.46 239.363 327.651 240.808 329.456C241.266 330.027 241.973 331.905 244.203 332.39C244.351 332.418 248.164 332.644 248.3 334.451C248.32 334.747 247.306 335.838 249.787 336.671C250.263 336.828 249.745 336.056 250.892 336.618C252.652 337.478 254.511 339.282 256.829 340.12C257.234 340.265 259.252 340.468 259.966 341.907C260.078 342.132 259.449 342.291 260.026 342.768C262.77 345.04 265.995 346.923 268.739 349.288C269.712 350.126 268.718 350.398 269.68 351.342C270.643 352.287 272.713 354.007 274.06 354.517C275.408 355.026 274.901 353.109 276.663 354.235C276.889 354.379 277.114 354.524 277.339 354.67L268.519 356.169C273.319 348.778 278.946 342.066 284.123 334.952C284.914 333.865 283.898 334.511 285.038 332.891C289.237 326.913 296.187 316.381 300.643 311.77C304.213 308.076 300.995 313.629 303.497 310.646C304.703 309.206 304.671 306.699 304.895 306.303C307.065 302.428 309.375 300.304 311.511 296.945C311.953 296.252 310.998 296.562 311.379 295.976C312.675 293.97 314.345 292.079 315.624 290.191C316.197 289.343 315.715 289.232 316.289 288.485C317.656 286.694 318.966 285.181 320.586 283.638C320.733 283.497 320.416 284.927 321.398 283.58C322.985 281.399 325.267 278.914 326.706 276.131C327.132 275.304 326.301 274.67 328.035 273.473C328.398 273.222 329.114 274.38 329.564 271.872C329.642 271.452 330.69 267.448 332.558 266.443C333.051 266.178 334.629 265.728 335.138 264.732C335.204 264.595 334.398 264.76 334.884 263.98C336.606 261.238 338.615 258.509 340.394 255.698C340.868 254.947 339.63 255.688 340.352 254.579C342.336 251.529 345.083 247.913 347.288 245.119C348.102 244.089 347.97 245.107 348.068 245.059C349.65 244.301 349.237 242.896 349.477 242.443C350.982 239.628 352.817 237.975 354.389 235.512C354.824 234.834 354.047 234.982 354.1 234.823C354.672 233.191 354.758 234.771 355.456 233.975C357.412 231.749 359.278 229.043 360.946 226.571C361.558 225.663 360.327 226.299 360.883 225.488C364.159 220.68 367.708 215.784 371.278 211.357C371.952 210.524 371.961 211.356 372.182 211.239C373.708 210.439 374.14 207.987 374.357 207.506C375.341 205.317 376.223 204.822 377.36 203.08C382.909 194.564 390.399 184.503 396.091 176.786C396.658 176.017 397.217 175.262 397.769 174.519L399.197 182.923C390.227 176.265 383.022 170.677 373.985 164.402C373.364 163.969 373.61 164.942 373.069 164.576C366.106 159.828 359.487 154.82 352.492 150.087C351.918 149.698 352.376 150.779 351.443 150.171C349.529 148.928 347.191 147.228 345.424 145.733C344.562 145.005 346.099 145.446 345.224 144.722C343.189 143.034 340.909 141.363 338.643 139.876C337.678 139.245 338.731 140.766 337.505 139.905C329.147 134.051 320.91 128.34 312.973 121.707C312.429 121.252 312.666 119.847 311.297 119.178C310.999 119.402 310.762 119.747 310.501 120.029C298.267 111.6 286.533 102.73 274.424 94.0534C273.913 93.6877 274.405 94.8701 273.415 94.165C267.681 90.0843 261.998 86.2832 256.518 81.5665C255.973 81.0993 256.964 80.3362 255.143 79.2657C254.821 79.0778 252.143 77.3733 251.324 77.1107C251.211 77.0782 251.36 77.8681 250.517 77.2902C245.627 73.9241 240.626 70.2202 235.991 66.5128C235.243 65.9136 236.418 66.0183 235.888 65.5873C232.13 62.5337 227.581 59.8606 224.128 56.7486C221.817 54.6637 223.345 54.488 222.591 52.7128C222.484 52.462 220.936 51.3361 221.196 50.799C221.845 49.4453 223.538 48.6604 224.14 47.1542C224.271 46.8306 221.969 45.6458 223.682 45.8545C223.8 45.871 225.473 46.7242 226.008 46.7619C226.379 46.7893 226.257 45.969 226.93 46.1443C227.603 46.3197 227.895 47.1422 228.942 47.5298C229.99 47.9142 229.998 47.0848 231.799 48.2643ZM151.158 269.8C152.215 271.25 153.631 269.688 151.84 269.032C151.752 269.002 151.103 269.726 151.158 269.8ZM171.724 122.052C169.684 123.332 169.911 125.359 171.4 124.492C172.889 123.625 172.345 121.661 171.724 122.052ZM184.521 102.852C182.423 104.55 184.607 106.602 185.729 103.984C185.795 103.832 184.643 102.752 184.521 102.852ZM228.969 56.8854C228.966 56.8492 227.86 56.031 227.817 56.0344C226.835 56.1528 229.047 57.7885 228.969 56.8854ZM197.166 83.7607C196.369 84.1901 195.395 86.364 196.386 85.8307C197.183 85.4011 198.159 83.2255 197.166 83.7607ZM222.246 322.978C222.25 323.019 223.038 323.613 223.124 323.457C223.398 322.955 222.186 322.292 222.246 322.978ZM219.648 52.0156C216.231 56.6382 212.215 58.0611 216.062 53.1168C216.759 52.2214 215.286 55.5616 216.301 54.513C218.157 52.5933 217.916 50.2728 220.147 48.5534C220.553 48.2431 219.847 51.7551 219.645 52.0259C219.646 52.0225 219.647 52.0191 219.648 52.0156ZM150.502 272.418C150.514 272.46 151.612 273.271 151.655 273.268C152.642 273.154 150.43 271.518 150.502 272.418ZM268.437 357.339C268.465 357.43 271.017 359.309 271.133 359.325C273.11 359.395 267.952 355.594 268.437 357.339ZM102.223 213.585C102.54 211.983 103.507 210.484 104.879 210.001C103.986 211.183 103.118 212.395 102.223 213.585Z" fill="white"></path>
</svg></svg></g></g></svg></g></svg>